<mxfile host="app.diagrams.net" modified="2023-08-07T05:09:41.363Z" agent="Mozilla/5.0 (Macintosh; Intel Mac OS X 10_15_7) AppleWebKit/537.36 (KHTML, like Gecko) Chrome/115.0.0.0 Safari/537.36" etag="jrH2-RUtc8_j4ZYOK3o_" version="21.6.6" type="github">
  <diagram name="第 1 页" id="jQH7tbNoPTEvgEEvp-iL">
    <mxGraphModel dx="2133" dy="730" grid="1" gridSize="10" guides="1" tooltips="1" connect="1" arrows="1" fold="1" page="1" pageScale="1" pageWidth="827" pageHeight="1169" math="0" shadow="0">
      <root>
        <mxCell id="0" />
        <mxCell id="1" parent="0" />
        <mxCell id="_sPBnabsmY97HrsPwDeZ-8" value="" style="rounded=0;whiteSpace=wrap;html=1;strokeWidth=1.5;fillColor=none;strokeColor=#9673a6;dashed=1;" parent="1" vertex="1">
          <mxGeometry x="1129.75" y="1376.25" width="380.25" height="133.75" as="geometry" />
        </mxCell>
        <mxCell id="5bBs6NmfSSInxgMYiH-d-46" value="" style="rounded=0;whiteSpace=wrap;html=1;fillColor=none;fontColor=#ffffff;strokeColor=#005700;dashed=1;" parent="1" vertex="1">
          <mxGeometry x="306" y="1470" width="184" height="120" as="geometry" />
        </mxCell>
        <mxCell id="wHmQGSl_OAx13h6DnjfR-1" value="" style="shape=curlyBracket;whiteSpace=wrap;html=1;rounded=1;labelPosition=left;verticalLabelPosition=middle;align=right;verticalAlign=middle;strokeWidth=1.5;" parent="1" vertex="1">
          <mxGeometry x="160" y="280" width="20" height="200" as="geometry" />
        </mxCell>
        <mxCell id="wHmQGSl_OAx13h6DnjfR-3" value="" style="verticalLabelPosition=bottom;verticalAlign=top;html=1;shape=mxgraph.basic.layered_rect;dx=10;outlineConnect=0;whiteSpace=wrap;fillColor=#d0cee2;strokeColor=#56517e;" parent="1" vertex="1">
          <mxGeometry x="50" y="350" width="100" height="60" as="geometry" />
        </mxCell>
        <mxCell id="wHmQGSl_OAx13h6DnjfR-5" value="框架配置" style="rounded=0;whiteSpace=wrap;html=1;strokeWidth=1.5;fillColor=none;strokeColor=none;" parent="1" vertex="1">
          <mxGeometry x="60" y="355" width="70" height="40" as="geometry" />
        </mxCell>
        <mxCell id="wHmQGSl_OAx13h6DnjfR-6" value="server配置" style="rounded=1;whiteSpace=wrap;html=1;strokeWidth=1.5;fillColor=#e1d5e7;strokeColor=#9673a6;" parent="1" vertex="1">
          <mxGeometry x="190" y="260" width="70" height="40" as="geometry" />
        </mxCell>
        <mxCell id="wHmQGSl_OAx13h6DnjfR-7" value="client配置" style="rounded=1;whiteSpace=wrap;html=1;strokeWidth=1.5;fillColor=#f8cecc;strokeColor=#b85450;" parent="1" vertex="1">
          <mxGeometry x="186" y="460" width="70" height="40" as="geometry" />
        </mxCell>
        <mxCell id="wHmQGSl_OAx13h6DnjfR-8" value="" style="shape=curlyBracket;whiteSpace=wrap;html=1;rounded=1;labelPosition=left;verticalLabelPosition=middle;align=right;verticalAlign=middle;strokeWidth=1.5;" parent="1" vertex="1">
          <mxGeometry x="260" y="230" width="20" height="100" as="geometry" />
        </mxCell>
        <mxCell id="wHmQGSl_OAx13h6DnjfR-10" value="123" style="rounded=0;whiteSpace=wrap;html=1;strokeWidth=1.5;fillColor=none;strokeColor=none;" parent="1" vertex="1">
          <mxGeometry x="260" y="210" width="70" height="40" as="geometry" />
        </mxCell>
        <mxCell id="wHmQGSl_OAx13h6DnjfR-11" value="Coding平台" style="rounded=0;whiteSpace=wrap;html=1;strokeWidth=1.5;fillColor=none;strokeColor=none;" parent="1" vertex="1">
          <mxGeometry x="280" y="310" width="70" height="40" as="geometry" />
        </mxCell>
        <mxCell id="wHmQGSl_OAx13h6DnjfR-12" value="解析框架配置" style="rounded=1;whiteSpace=wrap;html=1;strokeWidth=1.5;fillColor=none;strokeColor=#9673a6;" parent="1" vertex="1">
          <mxGeometry x="370" y="210" width="70" height="40" as="geometry" />
        </mxCell>
        <mxCell id="wHmQGSl_OAx13h6DnjfR-13" value="" style="endArrow=classic;html=1;rounded=0;strokeWidth=1.5;fillColor=#e1d5e7;strokeColor=#9673a6;" parent="1" edge="1">
          <mxGeometry width="50" height="50" relative="1" as="geometry">
            <mxPoint x="320" y="230" as="sourcePoint" />
            <mxPoint x="360" y="230" as="targetPoint" />
          </mxGeometry>
        </mxCell>
        <mxCell id="wHmQGSl_OAx13h6DnjfR-14" value="" style="endArrow=classic;html=1;rounded=0;strokeWidth=1.5;fillColor=#e1d5e7;strokeColor=#9673a6;" parent="1" edge="1">
          <mxGeometry width="50" height="50" relative="1" as="geometry">
            <mxPoint x="450" y="229.5" as="sourcePoint" />
            <mxPoint x="490" y="229.5" as="targetPoint" />
          </mxGeometry>
        </mxCell>
        <mxCell id="wHmQGSl_OAx13h6DnjfR-15" value="获取server name列表" style="rounded=1;whiteSpace=wrap;html=1;strokeWidth=1.5;fillColor=none;strokeColor=#9673a6;" parent="1" vertex="1">
          <mxGeometry x="500" y="210" width="70" height="40" as="geometry" />
        </mxCell>
        <mxCell id="wHmQGSl_OAx13h6DnjfR-16" value="" style="endArrow=classic;html=1;rounded=0;strokeWidth=1.5;fillColor=#e1d5e7;strokeColor=#9673a6;" parent="1" edge="1">
          <mxGeometry width="50" height="50" relative="1" as="geometry">
            <mxPoint x="580" y="229.5" as="sourcePoint" />
            <mxPoint x="620" y="229.5" as="targetPoint" />
          </mxGeometry>
        </mxCell>
        <mxCell id="wHmQGSl_OAx13h6DnjfR-17" value="注册北极星" style="rounded=1;whiteSpace=wrap;html=1;strokeWidth=1.5;fillColor=none;strokeColor=#9673a6;" parent="1" vertex="1">
          <mxGeometry x="630" y="210" width="70" height="40" as="geometry" />
        </mxCell>
        <mxCell id="wHmQGSl_OAx13h6DnjfR-18" value="格式：trpc.app.server.service" style="ellipse;shape=cloud;whiteSpace=wrap;html=1;strokeWidth=1;fillColor=#f5f5f5;fontColor=#333333;strokeColor=#666666;" parent="1" vertex="1">
          <mxGeometry x="534" y="130" width="150" height="80" as="geometry" />
        </mxCell>
        <mxCell id="wHmQGSl_OAx13h6DnjfR-19" value="" style="endArrow=classic;html=1;rounded=0;strokeWidth=1.5;fillColor=#60a917;strokeColor=#2D7600;" parent="1" edge="1">
          <mxGeometry width="50" height="50" relative="1" as="geometry">
            <mxPoint x="350" y="331" as="sourcePoint" />
            <mxPoint x="390" y="331" as="targetPoint" />
          </mxGeometry>
        </mxCell>
        <mxCell id="wHmQGSl_OAx13h6DnjfR-20" value="&lt;font color=&quot;#1a1a1a&quot;&gt;手工登记名字&lt;/font&gt;" style="rounded=1;whiteSpace=wrap;html=1;strokeWidth=1.5;fillColor=none;fontColor=#ffffff;strokeColor=#2D7600;" parent="1" vertex="1">
          <mxGeometry x="400" y="310" width="70" height="40" as="geometry" />
        </mxCell>
        <mxCell id="wHmQGSl_OAx13h6DnjfR-21" value="&lt;font color=&quot;#1a1a1a&quot;&gt;平台注册&lt;/font&gt;" style="rounded=1;whiteSpace=wrap;html=1;strokeWidth=1.5;fillColor=none;fontColor=#ffffff;strokeColor=#2D7600;" parent="1" vertex="1">
          <mxGeometry x="520" y="310" width="70" height="40" as="geometry" />
        </mxCell>
        <mxCell id="wHmQGSl_OAx13h6DnjfR-22" value="" style="endArrow=classic;html=1;rounded=0;strokeWidth=1.5;fillColor=#60a917;strokeColor=#2D7600;" parent="1" edge="1">
          <mxGeometry width="50" height="50" relative="1" as="geometry">
            <mxPoint x="475" y="329.5" as="sourcePoint" />
            <mxPoint x="515" y="329.5" as="targetPoint" />
          </mxGeometry>
        </mxCell>
        <mxCell id="wHmQGSl_OAx13h6DnjfR-23" value="" style="endArrow=classic;html=1;rounded=0;strokeWidth=1.5;exitX=1;exitY=0.5;exitDx=0;exitDy=0;entryX=0.6;entryY=0.988;entryDx=0;entryDy=0;entryPerimeter=0;fillColor=#008a00;strokeColor=#005700;" parent="1" source="wHmQGSl_OAx13h6DnjfR-21" target="wHmQGSl_OAx13h6DnjfR-17" edge="1">
          <mxGeometry width="50" height="50" relative="1" as="geometry">
            <mxPoint x="310" y="400" as="sourcePoint" />
            <mxPoint x="360" y="350" as="targetPoint" />
            <Array as="points">
              <mxPoint x="672" y="330" />
            </Array>
          </mxGeometry>
        </mxCell>
        <mxCell id="wHmQGSl_OAx13h6DnjfR-24" value="trpc.NewServer" style="rounded=1;whiteSpace=wrap;html=1;strokeWidth=1.5;fillColor=none;strokeColor=#b85450;" parent="1" vertex="1">
          <mxGeometry x="291" y="459" width="90" height="40" as="geometry" />
        </mxCell>
        <mxCell id="wHmQGSl_OAx13h6DnjfR-25" value="" style="endArrow=classic;html=1;rounded=0;strokeWidth=1.5;fillColor=#f8cecc;strokeColor=#b85450;" parent="1" edge="1">
          <mxGeometry width="50" height="50" relative="1" as="geometry">
            <mxPoint x="258" y="480" as="sourcePoint" />
            <mxPoint x="288" y="480" as="targetPoint" />
          </mxGeometry>
        </mxCell>
        <mxCell id="wHmQGSl_OAx13h6DnjfR-26" value="" style="endArrow=classic;html=1;rounded=0;strokeWidth=1.5;fillColor=#f8cecc;strokeColor=#b85450;" parent="1" edge="1">
          <mxGeometry width="50" height="50" relative="1" as="geometry">
            <mxPoint x="383" y="479.5" as="sourcePoint" />
            <mxPoint x="423" y="480" as="targetPoint" />
          </mxGeometry>
        </mxCell>
        <mxCell id="wHmQGSl_OAx13h6DnjfR-28" value="解析配置" style="rounded=1;whiteSpace=wrap;html=1;strokeWidth=1.5;fillColor=none;strokeColor=#b85450;" parent="1" vertex="1">
          <mxGeometry x="426" y="459" width="74" height="40" as="geometry" />
        </mxCell>
        <mxCell id="wHmQGSl_OAx13h6DnjfR-30" value="" style="endArrow=classic;html=1;rounded=0;strokeWidth=1.5;fillColor=#f8cecc;strokeColor=#b85450;" parent="1" edge="1">
          <mxGeometry width="50" height="50" relative="1" as="geometry">
            <mxPoint x="506" y="479.5" as="sourcePoint" />
            <mxPoint x="546" y="480" as="targetPoint" />
          </mxGeometry>
        </mxCell>
        <mxCell id="wHmQGSl_OAx13h6DnjfR-32" value="" style="ellipse;whiteSpace=wrap;html=1;aspect=fixed;rounded=1;strokeColor=#3A5431;strokeWidth=1;fontSize=12;fillColor=#6d8764;fontColor=#ffffff;" parent="1" vertex="1">
          <mxGeometry x="470" y="525" width="30" height="30" as="geometry" />
        </mxCell>
        <mxCell id="wHmQGSl_OAx13h6DnjfR-33" value="LoadConfig" style="rounded=0;whiteSpace=wrap;html=1;strokeWidth=1.5;fillColor=none;strokeColor=none;" parent="1" vertex="1">
          <mxGeometry x="400" y="520" width="70" height="40" as="geometry" />
        </mxCell>
        <mxCell id="wHmQGSl_OAx13h6DnjfR-35" value="" style="ellipse;whiteSpace=wrap;html=1;aspect=fixed;rounded=1;strokeColor=#314354;strokeWidth=1;fontSize=12;fillColor=#647687;fontColor=#ffffff;" parent="1" vertex="1">
          <mxGeometry x="470" y="580" width="30" height="30" as="geometry" />
        </mxCell>
        <mxCell id="wHmQGSl_OAx13h6DnjfR-36" value="RepairConfig" style="rounded=0;whiteSpace=wrap;html=1;strokeWidth=1.5;fillColor=none;strokeColor=none;" parent="1" vertex="1">
          <mxGeometry x="394" y="575" width="70" height="40" as="geometry" />
        </mxCell>
        <mxCell id="wHmQGSl_OAx13h6DnjfR-37" value="" style="endArrow=classic;html=1;rounded=0;strokeWidth=1.5;fontSize=12;fontColor=#1A1A1A;exitX=0.5;exitY=1;exitDx=0;exitDy=0;fillColor=#6d8764;strokeColor=#3A5431;" parent="1" source="wHmQGSl_OAx13h6DnjfR-32" target="wHmQGSl_OAx13h6DnjfR-35" edge="1">
          <mxGeometry width="50" height="50" relative="1" as="geometry">
            <mxPoint x="590" y="600" as="sourcePoint" />
            <mxPoint x="640" y="550" as="targetPoint" />
          </mxGeometry>
        </mxCell>
        <mxCell id="wHmQGSl_OAx13h6DnjfR-38" value="repairClientConfig" style="rounded=0;whiteSpace=wrap;html=1;strokeWidth=1.5;fillColor=none;strokeColor=none;" parent="1" vertex="1">
          <mxGeometry x="383" y="630" width="70" height="40" as="geometry" />
        </mxCell>
        <mxCell id="wHmQGSl_OAx13h6DnjfR-39" value="" style="ellipse;whiteSpace=wrap;html=1;aspect=fixed;rounded=1;strokeColor=#432D57;strokeWidth=1;fontSize=12;fillColor=#76608a;fontColor=#ffffff;" parent="1" vertex="1">
          <mxGeometry x="470" y="635" width="30" height="30" as="geometry" />
        </mxCell>
        <mxCell id="wHmQGSl_OAx13h6DnjfR-40" value="" style="endArrow=classic;html=1;rounded=0;strokeWidth=1.5;fontSize=12;fontColor=#1A1A1A;exitX=0.5;exitY=1;exitDx=0;exitDy=0;fillColor=#647687;strokeColor=#314354;" parent="1" edge="1">
          <mxGeometry width="50" height="50" relative="1" as="geometry">
            <mxPoint x="485.5" y="610" as="sourcePoint" />
            <mxPoint x="485.5" y="635" as="targetPoint" />
          </mxGeometry>
        </mxCell>
        <mxCell id="wHmQGSl_OAx13h6DnjfR-43" value="&lt;pre style=&quot;border-color: var(--border-color); color: rgb(0, 0, 0); text-align: left;&quot;&gt;&lt;font style=&quot;font-size: 14px;&quot;&gt;if conf.Callee == &lt;span style=&quot;border-color: var(--border-color); color: rgb(0, 128, 0); font-weight: bold;&quot;&gt;&quot;&quot; &lt;/span&gt;{&lt;span style=&quot;border-color: var(--border-color);&quot;&gt;&lt;br style=&quot;border-color: var(--border-color);&quot;&gt;&lt;/span&gt;   conf.Callee = conf.ServiceName&lt;span style=&quot;border-color: var(--border-color);&quot;&gt;&lt;br style=&quot;border-color: var(--border-color);&quot;&gt;&lt;/span&gt;}&lt;span style=&quot;border-color: var(--border-color);&quot;&gt;&lt;br style=&quot;border-color: var(--border-color);&quot;&gt;&lt;/span&gt;&lt;span style=&quot;border-color: var(--border-color); color: rgb(0, 0, 128); font-weight: bold;&quot;&gt;if &lt;/span&gt;conf.ServiceName == &lt;span style=&quot;border-color: var(--border-color); color: rgb(0, 128, 0); font-weight: bold;&quot;&gt;&quot;&quot; &lt;/span&gt;{&lt;span style=&quot;border-color: var(--border-color);&quot;&gt;&lt;br style=&quot;border-color: var(--border-color);&quot;&gt;&lt;/span&gt;   conf.ServiceName = conf.Callee&lt;span style=&quot;border-color: var(--border-color);&quot;&gt;&lt;br style=&quot;border-color: var(--border-color);&quot;&gt;&lt;/span&gt;}&lt;/font&gt;&lt;/pre&gt;" style="ellipse;shape=cloud;whiteSpace=wrap;html=1;strokeWidth=1;fillColor=#f5f5f5;fontColor=#333333;strokeColor=#666666;" parent="1" vertex="1">
          <mxGeometry x="310" y="650" width="380" height="170" as="geometry" />
        </mxCell>
        <mxCell id="wHmQGSl_OAx13h6DnjfR-45" value="Setup" style="rounded=1;whiteSpace=wrap;html=1;strokeWidth=1.5;fillColor=none;strokeColor=#b85450;" parent="1" vertex="1">
          <mxGeometry x="556" y="459" width="74" height="40" as="geometry" />
        </mxCell>
        <mxCell id="wHmQGSl_OAx13h6DnjfR-46" value="构建map配置clientConfig" style="rounded=1;whiteSpace=wrap;html=1;strokeWidth=1.5;fillColor=none;strokeColor=#b85450;" parent="1" vertex="1">
          <mxGeometry x="680" y="460" width="74" height="40" as="geometry" />
        </mxCell>
        <mxCell id="wHmQGSl_OAx13h6DnjfR-48" value="" style="endArrow=classic;html=1;rounded=0;strokeWidth=1.5;fillColor=#f8cecc;strokeColor=#b85450;" parent="1" edge="1">
          <mxGeometry width="50" height="50" relative="1" as="geometry">
            <mxPoint x="634" y="478.5" as="sourcePoint" />
            <mxPoint x="674" y="479" as="targetPoint" />
          </mxGeometry>
        </mxCell>
        <mxCell id="wHmQGSl_OAx13h6DnjfR-49" value="" style="shape=curlyBracket;whiteSpace=wrap;html=1;rounded=1;labelPosition=left;verticalLabelPosition=middle;align=right;verticalAlign=middle;strokeWidth=1.5;" parent="1" vertex="1">
          <mxGeometry x="760" y="430" width="20" height="100" as="geometry" />
        </mxCell>
        <mxCell id="wHmQGSl_OAx13h6DnjfR-50" value="key：client.BackendConfig.&lt;b&gt;&lt;font color=&quot;#ff3333&quot;&gt;Callee&lt;/font&gt;&lt;/b&gt;" style="rounded=1;whiteSpace=wrap;html=1;strokeWidth=1.5;fillColor=#f8cecc;strokeColor=#b85450;sketch=1;curveFitting=1;jiggle=2;" parent="1" vertex="1">
          <mxGeometry x="790" y="410" width="190" height="40" as="geometry" />
        </mxCell>
        <mxCell id="wHmQGSl_OAx13h6DnjfR-51" value="val：*client.BackendConfig" style="rounded=1;whiteSpace=wrap;html=1;strokeWidth=1.5;fillColor=#f8cecc;strokeColor=#b85450;sketch=1;curveFitting=1;jiggle=2;" parent="1" vertex="1">
          <mxGeometry x="788" y="509" width="162" height="40" as="geometry" />
        </mxCell>
        <mxCell id="wHmQGSl_OAx13h6DnjfR-53" value="同ServiceName&lt;br&gt;&lt;b&gt;或&lt;/b&gt;对端协议文件的package.service" style="rounded=1;whiteSpace=wrap;html=1;strokeWidth=1.5;fillColor=#e1d5e7;strokeColor=#9673a6;sketch=1;curveFitting=1;jiggle=2;shadow=0;glass=0;" parent="1" vertex="1">
          <mxGeometry x="791" y="575" width="112" height="45" as="geometry" />
        </mxCell>
        <mxCell id="wHmQGSl_OAx13h6DnjfR-54" value="北极星名字" style="rounded=1;whiteSpace=wrap;html=1;strokeWidth=1.5;fillColor=#e1d5e7;strokeColor=#9673a6;sketch=1;curveFitting=1;jiggle=2;shadow=0;glass=0;" parent="1" vertex="1">
          <mxGeometry x="790" y="680" width="113" height="40" as="geometry" />
        </mxCell>
        <mxCell id="wHmQGSl_OAx13h6DnjfR-56" value="" style="shape=curlyBracket;whiteSpace=wrap;html=1;rounded=1;labelPosition=left;verticalLabelPosition=middle;align=right;verticalAlign=middle;strokeWidth=1.5;" parent="1" vertex="1">
          <mxGeometry x="677" y="600" width="20" height="100" as="geometry" />
        </mxCell>
        <mxCell id="wHmQGSl_OAx13h6DnjfR-57" value="Callee" style="rounded=1;whiteSpace=wrap;html=1;strokeWidth=1.5;fillColor=none;strokeColor=#b85450;" parent="1" vertex="1">
          <mxGeometry x="700" y="580" width="70" height="40" as="geometry" />
        </mxCell>
        <mxCell id="wHmQGSl_OAx13h6DnjfR-58" value="ServiceName" style="rounded=1;whiteSpace=wrap;html=1;strokeWidth=1.5;fillColor=none;strokeColor=#b85450;" parent="1" vertex="1">
          <mxGeometry x="700" y="680" width="70" height="40" as="geometry" />
        </mxCell>
        <mxCell id="wHmQGSl_OAx13h6DnjfR-59" value="client.BackendConfig" style="rounded=1;whiteSpace=wrap;html=1;strokeWidth=1.5;fillColor=none;strokeColor=#b85450;" parent="1" vertex="1">
          <mxGeometry x="549" y="630" width="124" height="40" as="geometry" />
        </mxCell>
        <mxCell id="wHmQGSl_OAx13h6DnjfR-60" value="" style="curved=1;endArrow=classic;html=1;rounded=0;strokeWidth=1.5;fontSize=12;fontColor=#1A1A1A;exitX=0.75;exitY=0;exitDx=0;exitDy=0;entryX=0.5;entryY=1;entryDx=0;entryDy=0;dashed=1;fillColor=#f8cecc;strokeColor=#b85450;" parent="1" source="wHmQGSl_OAx13h6DnjfR-59" target="wHmQGSl_OAx13h6DnjfR-46" edge="1">
          <mxGeometry width="50" height="50" relative="1" as="geometry">
            <mxPoint x="700" y="720" as="sourcePoint" />
            <mxPoint x="750" y="670" as="targetPoint" />
            <Array as="points">
              <mxPoint x="650" y="580" />
              <mxPoint x="717" y="570" />
            </Array>
          </mxGeometry>
        </mxCell>
        <mxCell id="wHmQGSl_OAx13h6DnjfR-61" value="客户端调用" style="rounded=1;whiteSpace=wrap;html=1;strokeWidth=1.5;fillColor=#e1d5e7;strokeColor=#9673a6;" parent="1" vertex="1">
          <mxGeometry x="190" y="890" width="90" height="40" as="geometry" />
        </mxCell>
        <mxCell id="wHmQGSl_OAx13h6DnjfR-62" value="设置RPCName和CalleeServiceName" style="rounded=1;whiteSpace=wrap;html=1;strokeWidth=1.5;fillColor=none;strokeColor=#9673a6;" parent="1" vertex="1">
          <mxGeometry x="330" y="890" width="110" height="40" as="geometry" />
        </mxCell>
        <mxCell id="wHmQGSl_OAx13h6DnjfR-63" value="" style="endArrow=classic;html=1;rounded=0;strokeWidth=1.5;fillColor=#e1d5e7;strokeColor=#9673a6;" parent="1" edge="1">
          <mxGeometry width="50" height="50" relative="1" as="geometry">
            <mxPoint x="285" y="909.5" as="sourcePoint" />
            <mxPoint x="325" y="910" as="targetPoint" />
          </mxGeometry>
        </mxCell>
        <mxCell id="wHmQGSl_OAx13h6DnjfR-64" value="" style="line;strokeWidth=4;direction=south;html=1;perimeter=backbonePerimeter;points=[];outlineConnect=0;rounded=1;shadow=0;glass=0;sketch=1;strokeColor=default;fontSize=12;fontColor=#1A1A1A;fillColor=default;opacity=0;" parent="1" vertex="1">
          <mxGeometry x="370" y="930" width="10" height="160" as="geometry" />
        </mxCell>
        <mxCell id="wHmQGSl_OAx13h6DnjfR-65" value="" style="endArrow=none;html=1;rounded=0;dashed=1;strokeWidth=1.5;fontSize=12;fontColor=#1A1A1A;exitX=0.25;exitY=1;exitDx=0;exitDy=0;fillColor=#e1d5e7;strokeColor=#9673a6;" parent="1" source="wHmQGSl_OAx13h6DnjfR-62" edge="1">
          <mxGeometry width="50" height="50" relative="1" as="geometry">
            <mxPoint x="710" y="880" as="sourcePoint" />
            <mxPoint x="358" y="1060" as="targetPoint" />
          </mxGeometry>
        </mxCell>
        <mxCell id="wHmQGSl_OAx13h6DnjfR-66" value="" style="endArrow=none;html=1;rounded=0;dashed=1;strokeWidth=1.5;fontSize=12;fontColor=#1A1A1A;fillColor=#e1d5e7;strokeColor=#9673a6;" parent="1" edge="1">
          <mxGeometry width="50" height="50" relative="1" as="geometry">
            <mxPoint x="360" y="980" as="sourcePoint" />
            <mxPoint x="400" y="980" as="targetPoint" />
          </mxGeometry>
        </mxCell>
        <mxCell id="wHmQGSl_OAx13h6DnjfR-67" value="" style="endArrow=none;html=1;rounded=0;dashed=1;strokeWidth=1.5;fontSize=12;fontColor=#1A1A1A;fillColor=#e1d5e7;strokeColor=#9673a6;" parent="1" edge="1">
          <mxGeometry width="50" height="50" relative="1" as="geometry">
            <mxPoint x="360" y="1040" as="sourcePoint" />
            <mxPoint x="400" y="1040" as="targetPoint" />
          </mxGeometry>
        </mxCell>
        <mxCell id="wHmQGSl_OAx13h6DnjfR-68" value="Client RPC名称" style="rounded=1;whiteSpace=wrap;html=1;strokeWidth=1.5;fillColor=none;strokeColor=#9673a6;" parent="1" vertex="1">
          <mxGeometry x="400" y="960" width="90" height="40" as="geometry" />
        </mxCell>
        <mxCell id="wHmQGSl_OAx13h6DnjfR-69" value="CalleeService&lt;br&gt;Name" style="rounded=1;whiteSpace=wrap;html=1;strokeWidth=1.5;fillColor=none;strokeColor=#9673a6;" parent="1" vertex="1">
          <mxGeometry x="400" y="1020" width="90" height="40" as="geometry" />
        </mxCell>
        <mxCell id="wHmQGSl_OAx13h6DnjfR-71" value="/package.service/&lt;br&gt;method" style="rounded=1;whiteSpace=wrap;html=1;strokeWidth=1.5;fillColor=none;strokeColor=#9673a6;" parent="1" vertex="1">
          <mxGeometry x="530" y="960" width="100" height="40" as="geometry" />
        </mxCell>
        <mxCell id="wHmQGSl_OAx13h6DnjfR-72" value="" style="endArrow=classic;html=1;rounded=0;strokeWidth=1.5;fillColor=#e1d5e7;strokeColor=#9673a6;" parent="1" edge="1">
          <mxGeometry width="50" height="50" relative="1" as="geometry">
            <mxPoint x="490" y="979.5" as="sourcePoint" />
            <mxPoint x="530" y="980" as="targetPoint" />
          </mxGeometry>
        </mxCell>
        <mxCell id="wHmQGSl_OAx13h6DnjfR-73" value="package.service" style="rounded=1;whiteSpace=wrap;html=1;strokeWidth=1.5;fillColor=none;strokeColor=#9673a6;" parent="1" vertex="1">
          <mxGeometry x="530" y="1020" width="100" height="40" as="geometry" />
        </mxCell>
        <mxCell id="wHmQGSl_OAx13h6DnjfR-74" value="" style="endArrow=classic;html=1;rounded=0;strokeWidth=1.5;fillColor=#e1d5e7;strokeColor=#9673a6;" parent="1" edge="1">
          <mxGeometry width="50" height="50" relative="1" as="geometry">
            <mxPoint x="490" y="1039.5" as="sourcePoint" />
            <mxPoint x="530" y="1040" as="targetPoint" />
          </mxGeometry>
        </mxCell>
        <mxCell id="wHmQGSl_OAx13h6DnjfR-75" value="" style="endArrow=classic;html=1;rounded=0;strokeWidth=1.5;fillColor=#e1d5e7;strokeColor=#9673a6;" parent="1" edge="1">
          <mxGeometry width="50" height="50" relative="1" as="geometry">
            <mxPoint x="443" y="909.5" as="sourcePoint" />
            <mxPoint x="483" y="910" as="targetPoint" />
          </mxGeometry>
        </mxCell>
        <mxCell id="wHmQGSl_OAx13h6DnjfR-76" value="根据&lt;b&gt;&lt;font color=&quot;#ff3333&quot;&gt;CalleeServiceName&lt;/font&gt;&lt;/b&gt; 在clientConfig中查找配置" style="rounded=1;whiteSpace=wrap;html=1;strokeWidth=1.5;fillColor=none;strokeColor=#9673a6;" parent="1" vertex="1">
          <mxGeometry x="488" y="880" width="110" height="60" as="geometry" />
        </mxCell>
        <mxCell id="wHmQGSl_OAx13h6DnjfR-77" value="" style="curved=1;endArrow=classic;html=1;rounded=0;strokeWidth=1.5;fontSize=12;fontColor=#1A1A1A;exitX=1;exitY=0;exitDx=0;exitDy=0;dashed=1;fillColor=#e1d5e7;strokeColor=#9673a6;entryX=0.75;entryY=1;entryDx=0;entryDy=0;" parent="1" source="wHmQGSl_OAx13h6DnjfR-76" target="wHmQGSl_OAx13h6DnjfR-46" edge="1">
          <mxGeometry width="50" height="50" relative="1" as="geometry">
            <mxPoint x="620" y="960" as="sourcePoint" />
            <mxPoint x="738" y="540" as="targetPoint" />
            <Array as="points">
              <mxPoint x="710" y="840" />
            </Array>
          </mxGeometry>
        </mxCell>
        <mxCell id="wHmQGSl_OAx13h6DnjfR-78" value="寻址" style="rounded=1;whiteSpace=wrap;html=1;strokeWidth=1.5;fillColor=none;strokeColor=#9673a6;" parent="1" vertex="1">
          <mxGeometry x="644" y="890" width="86" height="40" as="geometry" />
        </mxCell>
        <mxCell id="wHmQGSl_OAx13h6DnjfR-79" value="" style="endArrow=classic;html=1;rounded=0;strokeWidth=1.5;fillColor=#e1d5e7;strokeColor=#9673a6;" parent="1" edge="1">
          <mxGeometry width="50" height="50" relative="1" as="geometry">
            <mxPoint x="603" y="910" as="sourcePoint" />
            <mxPoint x="643" y="910.5" as="targetPoint" />
          </mxGeometry>
        </mxCell>
        <mxCell id="wHmQGSl_OAx13h6DnjfR-81" value="" style="endArrow=classic;html=1;rounded=0;strokeWidth=1.5;fillColor=#76608a;strokeColor=#432D57;" parent="1" edge="1">
          <mxGeometry width="50" height="50" relative="1" as="geometry">
            <mxPoint x="504" y="650" as="sourcePoint" />
            <mxPoint x="544" y="650.5" as="targetPoint" />
          </mxGeometry>
        </mxCell>
        <mxCell id="wHmQGSl_OAx13h6DnjfR-86" value="opts.endpoint" style="rounded=1;whiteSpace=wrap;html=1;strokeWidth=1.5;fillColor=none;strokeColor=#9673a6;shadow=0;glass=0;" parent="1" vertex="1">
          <mxGeometry x="770" y="970" width="86" height="40" as="geometry" />
        </mxCell>
        <mxCell id="wHmQGSl_OAx13h6DnjfR-87" value="" style="curved=1;endArrow=classic;html=1;rounded=0;strokeWidth=1.5;fontSize=12;fontColor=#1A1A1A;exitX=1;exitY=1;exitDx=0;exitDy=0;dashed=1;fillColor=#e1d5e7;strokeColor=#9673a6;entryX=0;entryY=0.5;entryDx=0;entryDy=0;" parent="1" source="wHmQGSl_OAx13h6DnjfR-76" target="wHmQGSl_OAx13h6DnjfR-86" edge="1">
          <mxGeometry width="50" height="50" relative="1" as="geometry">
            <mxPoint x="608" y="890" as="sourcePoint" />
            <mxPoint x="746" y="510" as="targetPoint" />
            <Array as="points">
              <mxPoint x="660" y="990" />
            </Array>
          </mxGeometry>
        </mxCell>
        <mxCell id="wHmQGSl_OAx13h6DnjfR-88" value="SetNamingOptions" style="rounded=0;whiteSpace=wrap;html=1;strokeWidth=1.5;fillColor=none;strokeColor=none;" parent="1" vertex="1">
          <mxGeometry x="652" y="970" width="70" height="40" as="geometry" />
        </mxCell>
        <mxCell id="wHmQGSl_OAx13h6DnjfR-90" value="&lt;pre style=&quot;border-color: var(--border-color); color: rgb(0, 0, 0); text-align: left;&quot;&gt;&lt;span style=&quot;font-size: 14px;&quot;&gt;if cfg.ServiceName != &quot;&quot; {&lt;/span&gt;&lt;/pre&gt;&lt;pre style=&quot;border-color: var(--border-color); color: rgb(0, 0, 0); text-align: left;&quot;&gt;&lt;span style=&quot;font-size: 14px;&quot;&gt;    opts.ServiceName = cfg.ServiceName&lt;/span&gt;&lt;/pre&gt;&lt;pre style=&quot;border-color: var(--border-color); color: rgb(0, 0, 0); text-align: left;&quot;&gt;&lt;span style=&quot;font-size: 14px;&quot;&gt;    opts.endpoint = cfg.ServiceName&lt;/span&gt;&lt;/pre&gt;&lt;pre style=&quot;border-color: var(--border-color); color: rgb(0, 0, 0); text-align: left;&quot;&gt;&lt;span style=&quot;font-size: 14px;&quot;&gt;}&lt;/span&gt;&lt;/pre&gt;" style="ellipse;shape=cloud;whiteSpace=wrap;html=1;strokeWidth=1;fillColor=#f5f5f5;fontColor=#333333;strokeColor=#666666;" parent="1" vertex="1">
          <mxGeometry x="361" y="1130" width="500" height="150" as="geometry" />
        </mxCell>
        <mxCell id="wHmQGSl_OAx13h6DnjfR-92" value="" style="endArrow=classic;html=1;rounded=0;dashed=1;strokeWidth=1.5;fontSize=14;fontColor=#1A1A1A;entryX=0.4;entryY=0.1;entryDx=0;entryDy=0;entryPerimeter=0;fillColor=#e1d5e7;strokeColor=#9673a6;exitX=0;exitY=0.75;exitDx=0;exitDy=0;" parent="1" source="wHmQGSl_OAx13h6DnjfR-88" target="wHmQGSl_OAx13h6DnjfR-90" edge="1">
          <mxGeometry width="50" height="50" relative="1" as="geometry">
            <mxPoint x="750" y="1010" as="sourcePoint" />
            <mxPoint x="740" y="950" as="targetPoint" />
          </mxGeometry>
        </mxCell>
        <mxCell id="wHmQGSl_OAx13h6DnjfR-93" value="setNamingInfo" style="rounded=0;whiteSpace=wrap;html=1;strokeWidth=1.5;fillColor=none;strokeColor=none;" parent="1" vertex="1">
          <mxGeometry x="697" y="1000" width="70" height="40" as="geometry" />
        </mxCell>
        <mxCell id="wHmQGSl_OAx13h6DnjfR-94" value="&lt;pre style=&quot;border-color: var(--border-color); color: rgb(0, 0, 0); text-align: left;&quot;&gt;配置了target，则解析target，&lt;/pre&gt;&lt;pre style=&quot;border-color: var(--border-color); color: rgb(0, 0, 0); text-align: left;&quot;&gt;赋值opts.endpoint：&lt;/pre&gt;&lt;pre style=&quot;border-color: var(--border-color); color: rgb(0, 0, 0); text-align: left;&quot;&gt;opts.endpoint = opts.Target[i:]&lt;/pre&gt;" style="ellipse;shape=cloud;whiteSpace=wrap;html=1;strokeWidth=1;fillColor=#bac8d3;strokeColor=#23445d;" parent="1" vertex="1">
          <mxGeometry x="722" y="1050" width="278" height="130" as="geometry" />
        </mxCell>
        <mxCell id="wHmQGSl_OAx13h6DnjfR-95" value="" style="endArrow=classic;html=1;rounded=0;dashed=1;strokeWidth=1.5;fontSize=14;fontColor=#1A1A1A;fillColor=#e1d5e7;strokeColor=#9673a6;exitX=1;exitY=0.75;exitDx=0;exitDy=0;entryX=0.364;entryY=0.105;entryDx=0;entryDy=0;entryPerimeter=0;" parent="1" source="wHmQGSl_OAx13h6DnjfR-93" target="wHmQGSl_OAx13h6DnjfR-94" edge="1">
          <mxGeometry width="50" height="50" relative="1" as="geometry">
            <mxPoint x="662" y="1010" as="sourcePoint" />
            <mxPoint x="571" y="1155" as="targetPoint" />
          </mxGeometry>
        </mxCell>
        <mxCell id="wHmQGSl_OAx13h6DnjfR-96" value="1" style="ellipse;whiteSpace=wrap;html=1;aspect=fixed;rounded=1;shadow=0;glass=0;sketch=0;fillStyle=auto;strokeColor=#9673a6;strokeWidth=1;fontSize=14;fillColor=none;" parent="1" vertex="1">
          <mxGeometry x="657" y="967" width="20" height="20" as="geometry" />
        </mxCell>
        <mxCell id="wHmQGSl_OAx13h6DnjfR-98" value="2" style="ellipse;whiteSpace=wrap;html=1;aspect=fixed;rounded=1;shadow=0;glass=0;sketch=0;fillStyle=auto;strokeColor=#9673a6;strokeWidth=1;fontSize=14;fillColor=none;" parent="1" vertex="1">
          <mxGeometry x="677" y="1010" width="20" height="20" as="geometry" />
        </mxCell>
        <mxCell id="wHmQGSl_OAx13h6DnjfR-100" value="" style="endArrow=classic;html=1;rounded=0;strokeWidth=1.5;fontSize=12;fontColor=#1A1A1A;exitX=1;exitY=0.5;exitDx=0;exitDy=0;dashed=1;fillColor=#e1d5e7;strokeColor=#9673a6;entryX=0.5;entryY=0;entryDx=0;entryDy=0;" parent="1" source="wHmQGSl_OAx13h6DnjfR-78" target="wHmQGSl_OAx13h6DnjfR-86" edge="1">
          <mxGeometry width="50" height="50" relative="1" as="geometry">
            <mxPoint x="608" y="950" as="sourcePoint" />
            <mxPoint x="780" y="1000" as="targetPoint" />
            <Array as="points">
              <mxPoint x="813" y="910" />
            </Array>
          </mxGeometry>
        </mxCell>
        <mxCell id="wHmQGSl_OAx13h6DnjfR-101" value="根据opts.endpoint" style="rounded=0;whiteSpace=wrap;html=1;strokeWidth=1.5;fillColor=none;strokeColor=none;" parent="1" vertex="1">
          <mxGeometry x="757" y="900" width="109" height="40" as="geometry" />
        </mxCell>
        <mxCell id="wHmQGSl_OAx13h6DnjfR-102" value="" style="endArrow=classic;html=1;rounded=0;dashed=1;strokeWidth=1.5;fontSize=14;fontColor=#1A1A1A;exitX=0.5;exitY=1;exitDx=0;exitDy=0;fillColor=#f8cecc;strokeColor=#b85450;" parent="1" source="wHmQGSl_OAx13h6DnjfR-28" edge="1">
          <mxGeometry width="50" height="50" relative="1" as="geometry">
            <mxPoint x="600" y="720" as="sourcePoint" />
            <mxPoint x="463" y="530" as="targetPoint" />
          </mxGeometry>
        </mxCell>
        <mxCell id="wHmQGSl_OAx13h6DnjfR-104" value="" style="shape=curlyBracket;whiteSpace=wrap;html=1;rounded=1;flipH=1;labelPosition=right;verticalLabelPosition=middle;align=left;verticalAlign=middle;shadow=0;glass=0;sketch=0;fillStyle=auto;strokeColor=default;strokeWidth=1.5;fontSize=14;fontColor=#FF3333;fillColor=none;" parent="1" vertex="1">
          <mxGeometry x="910" y="600" width="20" height="100" as="geometry" />
        </mxCell>
        <mxCell id="wHmQGSl_OAx13h6DnjfR-105" value="一般情况下，Callee和ServiceName相同" style="rounded=1;whiteSpace=wrap;html=1;strokeWidth=1.5;fillColor=#e1d5e7;strokeColor=#9673a6;sketch=1;curveFitting=1;jiggle=2;shadow=0;glass=0;" parent="1" vertex="1">
          <mxGeometry x="940" y="625" width="112" height="45" as="geometry" />
        </mxCell>
        <mxCell id="5bBs6NmfSSInxgMYiH-d-1" value="服务端" style="rounded=1;whiteSpace=wrap;html=1;strokeWidth=1.5;fillColor=#f8cecc;strokeColor=#b85450;" parent="1" vertex="1">
          <mxGeometry x="190" y="1400" width="90" height="40" as="geometry" />
        </mxCell>
        <mxCell id="5bBs6NmfSSInxgMYiH-d-2" value="&lt;font color=&quot;#1a1a1a&quot;&gt;RegisterXXXService&lt;/font&gt;" style="rounded=1;whiteSpace=wrap;html=1;strokeWidth=1.5;fillColor=none;strokeColor=#005700;fontColor=#ffffff;" parent="1" vertex="1">
          <mxGeometry x="340" y="1400" width="120" height="40" as="geometry" />
        </mxCell>
        <mxCell id="5bBs6NmfSSInxgMYiH-d-3" value="" style="endArrow=classic;html=1;rounded=0;strokeWidth=1.5;fillColor=#008a00;strokeColor=#005700;" parent="1" edge="1">
          <mxGeometry width="50" height="50" relative="1" as="geometry">
            <mxPoint x="285" y="1420" as="sourcePoint" />
            <mxPoint x="335" y="1419.5" as="targetPoint" />
          </mxGeometry>
        </mxCell>
        <mxCell id="5bBs6NmfSSInxgMYiH-d-4" value="" style="verticalLabelPosition=bottom;verticalAlign=top;html=1;shape=mxgraph.basic.layered_rect;dx=10;outlineConnect=0;whiteSpace=wrap;fillColor=default;fontColor=#ffffff;strokeColor=#005700;strokeWidth=1.5;" parent="1" vertex="1">
          <mxGeometry x="502" y="1353" width="78" height="45" as="geometry" />
        </mxCell>
        <mxCell id="5bBs6NmfSSInxgMYiH-d-5" value="&lt;font color=&quot;#1a1a1a&quot;&gt;北极星名字&lt;/font&gt;" style="rounded=1;whiteSpace=wrap;html=1;strokeWidth=1.5;fillColor=none;strokeColor=#005700;fontColor=#ffffff;" parent="1" vertex="1">
          <mxGeometry x="503" y="1451" width="78" height="36" as="geometry" />
        </mxCell>
        <mxCell id="5bBs6NmfSSInxgMYiH-d-10" value="绑定" style="rounded=0;whiteSpace=wrap;html=1;strokeWidth=1.5;fillColor=none;strokeColor=none;" parent="1" vertex="1">
          <mxGeometry x="490" y="1407.5" width="44" height="25" as="geometry" />
        </mxCell>
        <mxCell id="5bBs6NmfSSInxgMYiH-d-11" value="" style="shape=curlyBracket;whiteSpace=wrap;html=1;rounded=1;labelPosition=left;verticalLabelPosition=middle;align=right;verticalAlign=middle;strokeWidth=1.5;" parent="1" vertex="1">
          <mxGeometry x="479" y="1371" width="20" height="100" as="geometry" />
        </mxCell>
        <mxCell id="5bBs6NmfSSInxgMYiH-d-12" value="收到请求" style="rounded=1;whiteSpace=wrap;html=1;strokeWidth=1.5;fillColor=none;strokeColor=#b85450;" parent="1" vertex="1">
          <mxGeometry x="190" y="1640" width="90" height="40" as="geometry" />
        </mxCell>
        <mxCell id="5bBs6NmfSSInxgMYiH-d-13" value="" style="endArrow=classic;html=1;rounded=0;strokeWidth=1.5;fillColor=#f8cecc;strokeColor=#b85450;entryX=0.5;entryY=0;entryDx=0;entryDy=0;" parent="1" edge="1">
          <mxGeometry width="50" height="50" relative="1" as="geometry">
            <mxPoint x="235" y="1444" as="sourcePoint" />
            <mxPoint x="235" y="1634" as="targetPoint" />
          </mxGeometry>
        </mxCell>
        <mxCell id="5bBs6NmfSSInxgMYiH-d-16" value="PB定义" style="rounded=0;whiteSpace=wrap;html=1;strokeWidth=1.5;fillColor=none;strokeColor=none;" parent="1" vertex="1">
          <mxGeometry x="513" y="1358" width="44" height="25" as="geometry" />
        </mxCell>
        <mxCell id="5bBs6NmfSSInxgMYiH-d-17" value="&lt;font color=&quot;#1a1a1a&quot;&gt;/package.service/&lt;br&gt;method&lt;/font&gt;" style="rounded=1;whiteSpace=wrap;html=1;strokeWidth=1.5;fillColor=none;strokeColor=#005700;fontColor=#ffffff;" parent="1" vertex="1">
          <mxGeometry x="958" y="1353" width="100" height="40" as="geometry" />
        </mxCell>
        <mxCell id="5bBs6NmfSSInxgMYiH-d-18" value="" style="endArrow=classic;html=1;rounded=0;strokeWidth=1.5;fillColor=#008a00;strokeColor=#005700;" parent="1" edge="1">
          <mxGeometry width="50" height="50" relative="1" as="geometry">
            <mxPoint x="594" y="1421" as="sourcePoint" />
            <mxPoint x="644" y="1420.5" as="targetPoint" />
          </mxGeometry>
        </mxCell>
        <mxCell id="5bBs6NmfSSInxgMYiH-d-19" value="&lt;font color=&quot;#1a1a1a&quot;&gt;构建map&lt;br&gt;service.handlers&lt;br&gt;&lt;/font&gt;" style="rounded=1;whiteSpace=wrap;html=1;strokeWidth=1.5;fillColor=none;strokeColor=#005700;fontColor=#ffffff;" parent="1" vertex="1">
          <mxGeometry x="654" y="1400" width="106" height="40" as="geometry" />
        </mxCell>
        <mxCell id="5bBs6NmfSSInxgMYiH-d-22" value="" style="shape=curlyBracket;whiteSpace=wrap;html=1;rounded=1;labelPosition=left;verticalLabelPosition=middle;align=right;verticalAlign=middle;strokeWidth=1.5;size=0.5;" parent="1" vertex="1">
          <mxGeometry x="771" y="1371" width="20" height="100" as="geometry" />
        </mxCell>
        <mxCell id="5bBs6NmfSSInxgMYiH-d-23" value="&lt;font color=&quot;#1a1a1a&quot;&gt;key为RPCName&lt;/font&gt;" style="rounded=1;whiteSpace=wrap;html=1;strokeWidth=1.5;fillColor=none;strokeColor=#005700;fontColor=#ffffff;" parent="1" vertex="1">
          <mxGeometry x="797" y="1353" width="100" height="40" as="geometry" />
        </mxCell>
        <mxCell id="5bBs6NmfSSInxgMYiH-d-24" value="" style="endArrow=classic;html=1;rounded=0;strokeWidth=1.5;fillColor=#008a00;strokeColor=#005700;dashed=1;" parent="1" edge="1">
          <mxGeometry width="50" height="50" relative="1" as="geometry">
            <mxPoint x="903" y="1373" as="sourcePoint" />
            <mxPoint x="953" y="1372.5" as="targetPoint" />
          </mxGeometry>
        </mxCell>
        <mxCell id="5bBs6NmfSSInxgMYiH-d-25" value="&lt;font color=&quot;#1a1a1a&quot;&gt;val为Handler&lt;/font&gt;" style="rounded=1;whiteSpace=wrap;html=1;strokeWidth=1.5;fillColor=none;strokeColor=#005700;fontColor=#ffffff;" parent="1" vertex="1">
          <mxGeometry x="797" y="1451" width="100" height="40" as="geometry" />
        </mxCell>
        <mxCell id="5bBs6NmfSSInxgMYiH-d-26" value="service.Handle" style="rounded=1;whiteSpace=wrap;html=1;strokeWidth=1.5;fillColor=none;strokeColor=#b85450;" parent="1" vertex="1">
          <mxGeometry x="340" y="1640" width="90" height="40" as="geometry" />
        </mxCell>
        <mxCell id="5bBs6NmfSSInxgMYiH-d-27" value="" style="endArrow=classic;html=1;rounded=0;strokeWidth=1.5;fillColor=#f8cecc;strokeColor=#b85450;exitX=0.5;exitY=1;exitDx=0;exitDy=0;" parent="1" edge="1">
          <mxGeometry width="50" height="50" relative="1" as="geometry">
            <mxPoint x="290" y="1659.5" as="sourcePoint" />
            <mxPoint x="330" y="1659.5" as="targetPoint" />
          </mxGeometry>
        </mxCell>
        <mxCell id="5bBs6NmfSSInxgMYiH-d-28" value="根据RPCName找到Handler" style="rounded=1;whiteSpace=wrap;html=1;strokeWidth=1.5;fillColor=none;strokeColor=#b85450;" parent="1" vertex="1">
          <mxGeometry x="485" y="1640" width="90" height="40" as="geometry" />
        </mxCell>
        <mxCell id="5bBs6NmfSSInxgMYiH-d-29" value="" style="endArrow=classic;html=1;rounded=0;strokeWidth=1.5;fillColor=#f8cecc;strokeColor=#b85450;exitX=0.5;exitY=1;exitDx=0;exitDy=0;" parent="1" edge="1">
          <mxGeometry width="50" height="50" relative="1" as="geometry">
            <mxPoint x="438" y="1659.5" as="sourcePoint" />
            <mxPoint x="478" y="1659.5" as="targetPoint" />
          </mxGeometry>
        </mxCell>
        <mxCell id="5bBs6NmfSSInxgMYiH-d-30" value="" style="curved=1;endArrow=classic;html=1;rounded=0;strokeWidth=1.5;fontSize=12;fontColor=#1A1A1A;exitX=1;exitY=0;exitDx=0;exitDy=0;dashed=1;fillColor=#f8cecc;strokeColor=#b85450;entryX=0.5;entryY=1;entryDx=0;entryDy=0;" parent="1" source="5bBs6NmfSSInxgMYiH-d-28" target="5bBs6NmfSSInxgMYiH-d-19" edge="1">
          <mxGeometry width="50" height="50" relative="1" as="geometry">
            <mxPoint x="574" y="1670" as="sourcePoint" />
            <mxPoint x="712" y="1290" as="targetPoint" />
            <Array as="points">
              <mxPoint x="650" y="1590" />
            </Array>
          </mxGeometry>
        </mxCell>
        <mxCell id="5bBs6NmfSSInxgMYiH-d-31" value="格式" style="rounded=0;whiteSpace=wrap;html=1;strokeWidth=1.5;fillColor=none;strokeColor=none;" parent="1" vertex="1">
          <mxGeometry x="903" y="1340" width="44" height="25" as="geometry" />
        </mxCell>
        <mxCell id="5bBs6NmfSSInxgMYiH-d-32" value="执行Handler" style="rounded=1;whiteSpace=wrap;html=1;strokeWidth=1.5;fillColor=none;strokeColor=#b85450;" parent="1" vertex="1">
          <mxGeometry x="640" y="1640" width="90" height="40" as="geometry" />
        </mxCell>
        <mxCell id="5bBs6NmfSSInxgMYiH-d-33" value="" style="endArrow=classic;html=1;rounded=0;strokeWidth=1.5;fillColor=#f8cecc;strokeColor=#b85450;exitX=0.5;exitY=1;exitDx=0;exitDy=0;" parent="1" edge="1">
          <mxGeometry width="50" height="50" relative="1" as="geometry">
            <mxPoint x="589" y="1659.5" as="sourcePoint" />
            <mxPoint x="629" y="1659.5" as="targetPoint" />
          </mxGeometry>
        </mxCell>
        <mxCell id="5bBs6NmfSSInxgMYiH-d-34" value="&lt;font color=&quot;#1a1a1a&quot;&gt;实现&lt;/font&gt;" style="rounded=1;whiteSpace=wrap;html=1;strokeWidth=1.5;fillColor=none;strokeColor=#005700;fontColor=#ffffff;" parent="1" vertex="1">
          <mxGeometry x="590" y="1358" width="78" height="36" as="geometry" />
        </mxCell>
        <mxCell id="5bBs6NmfSSInxgMYiH-d-35" value="&lt;font color=&quot;#1a1a1a&quot;&gt;Server&lt;/font&gt;" style="rounded=1;whiteSpace=wrap;html=1;strokeWidth=1.5;fillColor=none;strokeColor=#005700;fontColor=#ffffff;" parent="1" vertex="1">
          <mxGeometry x="360" y="1480" width="80" height="31" as="geometry" />
        </mxCell>
        <mxCell id="5bBs6NmfSSInxgMYiH-d-37" value="&lt;font color=&quot;#1a1a1a&quot;&gt;svc1&lt;/font&gt;" style="rounded=0;whiteSpace=wrap;html=1;strokeWidth=1.5;fillColor=none;fontColor=#ffffff;strokeColor=#005700;" parent="1" vertex="1">
          <mxGeometry x="310" y="1550" width="40" height="31" as="geometry" />
        </mxCell>
        <mxCell id="5bBs6NmfSSInxgMYiH-d-39" value="&lt;font color=&quot;#1a1a1a&quot;&gt;svc2&lt;/font&gt;" style="rounded=0;whiteSpace=wrap;html=1;strokeWidth=1.5;fillColor=none;fontColor=#ffffff;strokeColor=#005700;" parent="1" vertex="1">
          <mxGeometry x="360" y="1550" width="40" height="31" as="geometry" />
        </mxCell>
        <mxCell id="5bBs6NmfSSInxgMYiH-d-40" value="&lt;font color=&quot;#1a1a1a&quot;&gt;svcN&lt;/font&gt;" style="rounded=0;whiteSpace=wrap;html=1;strokeWidth=1.5;fillColor=none;fontColor=#ffffff;strokeColor=#005700;" parent="1" vertex="1">
          <mxGeometry x="439" y="1550" width="40" height="31" as="geometry" />
        </mxCell>
        <mxCell id="5bBs6NmfSSInxgMYiH-d-42" value="" style="curved=1;endArrow=classic;html=1;rounded=0;strokeWidth=1.5;fontSize=12;fontColor=#1A1A1A;exitX=0.5;exitY=1;exitDx=0;exitDy=0;dashed=1;fillColor=#008a00;strokeColor=#005700;" parent="1" source="5bBs6NmfSSInxgMYiH-d-2" edge="1">
          <mxGeometry width="50" height="50" relative="1" as="geometry">
            <mxPoint x="747" y="1760" as="sourcePoint" />
            <mxPoint x="400" y="1470" as="targetPoint" />
            <Array as="points" />
          </mxGeometry>
        </mxCell>
        <mxCell id="5bBs6NmfSSInxgMYiH-d-43" value="" style="endArrow=classic;html=1;rounded=0;strokeWidth=1.5;fontSize=12;fontColor=#1A1A1A;exitX=1;exitY=0.5;exitDx=0;exitDy=0;dashed=1;fillColor=#008a00;strokeColor=#005700;entryX=0.5;entryY=0;entryDx=0;entryDy=0;" parent="1" source="5bBs6NmfSSInxgMYiH-d-35" target="5bBs6NmfSSInxgMYiH-d-40" edge="1">
          <mxGeometry width="50" height="50" relative="1" as="geometry">
            <mxPoint x="434" y="1511" as="sourcePoint" />
            <mxPoint x="434" y="1551" as="targetPoint" />
            <Array as="points">
              <mxPoint x="460" y="1496" />
            </Array>
          </mxGeometry>
        </mxCell>
        <mxCell id="5bBs6NmfSSInxgMYiH-d-44" value="" style="curved=1;endArrow=classic;html=1;rounded=0;strokeWidth=1.5;fontSize=12;fontColor=#1A1A1A;dashed=1;fillColor=#008a00;strokeColor=#005700;entryX=0.75;entryY=0;entryDx=0;entryDy=0;" parent="1" target="5bBs6NmfSSInxgMYiH-d-39" edge="1">
          <mxGeometry width="50" height="50" relative="1" as="geometry">
            <mxPoint x="390" y="1511" as="sourcePoint" />
            <mxPoint x="399" y="1550" as="targetPoint" />
            <Array as="points" />
          </mxGeometry>
        </mxCell>
        <mxCell id="5bBs6NmfSSInxgMYiH-d-45" value="" style="endArrow=classic;html=1;rounded=0;strokeWidth=1.5;fontSize=12;fontColor=#1A1A1A;exitX=0;exitY=0.5;exitDx=0;exitDy=0;dashed=1;fillColor=#008a00;strokeColor=#005700;entryX=0.5;entryY=0;entryDx=0;entryDy=0;" parent="1" source="5bBs6NmfSSInxgMYiH-d-35" target="5bBs6NmfSSInxgMYiH-d-37" edge="1">
          <mxGeometry width="50" height="50" relative="1" as="geometry">
            <mxPoint x="365" y="1511" as="sourcePoint" />
            <mxPoint x="361" y="1550" as="targetPoint" />
            <Array as="points">
              <mxPoint x="330" y="1496" />
            </Array>
          </mxGeometry>
        </mxCell>
        <mxCell id="oy9rxF2P4usleRckeEOI-1" value="&lt;pre style=&quot;border-color: var(--border-color); color: rgb(0, 0, 0); text-align: left;&quot;&gt;   若参数为Server，则Server&lt;/pre&gt;&lt;pre style=&quot;border-color: var(--border-color); color: rgb(0, 0, 0); text-align: left;&quot;&gt;     下所有的Service全部注册&lt;/pre&gt;" style="ellipse;shape=cloud;whiteSpace=wrap;html=1;strokeWidth=1;fillColor=#f5f5f5;fontColor=#333333;strokeColor=#666666;" parent="1" vertex="1">
          <mxGeometry x="470" y="1480" width="170" height="100" as="geometry" />
        </mxCell>
        <mxCell id="oy9rxF2P4usleRckeEOI-5" value="msg复制" style="rounded=1;whiteSpace=wrap;html=1;strokeWidth=1.5;fillColor=none;strokeColor=#9673a6;" parent="1" vertex="1">
          <mxGeometry x="190" y="987" width="90" height="40" as="geometry" />
        </mxCell>
        <mxCell id="oy9rxF2P4usleRckeEOI-8" value="&lt;div style=&quot;background-color:#ffffff;color:#080808;font-family:&#39;Consolas&#39;,monospace;font-size:12.8pt;&quot;&gt;&lt;pre&gt;&lt;br&gt;&lt;/pre&gt;&lt;/div&gt;" style="rounded=0;whiteSpace=wrap;html=1;strokeWidth=1.5;fillColor=none;strokeColor=none;" parent="1" vertex="1">
          <mxGeometry x="1096" y="890" width="109" height="40" as="geometry" />
        </mxCell>
        <mxCell id="oy9rxF2P4usleRckeEOI-9" value="WithCloneMessage" style="rounded=0;whiteSpace=wrap;html=1;strokeWidth=1.5;fillColor=none;strokeColor=none;" parent="1" vertex="1">
          <mxGeometry x="166.5" y="940" width="109" height="40" as="geometry" />
        </mxCell>
        <mxCell id="oy9rxF2P4usleRckeEOI-10" value="copyServerToClientMessage" style="rounded=0;whiteSpace=wrap;html=1;strokeWidth=1.5;fillColor=none;strokeColor=none;" parent="1" vertex="1">
          <mxGeometry x="130" y="1030" width="109" height="40" as="geometry" />
        </mxCell>
        <mxCell id="oy9rxF2P4usleRckeEOI-11" value="" style="endArrow=classic;html=1;rounded=0;strokeWidth=1.5;fillColor=#e1d5e7;strokeColor=#9673a6;entryX=0.5;entryY=0;entryDx=0;entryDy=0;" parent="1" edge="1">
          <mxGeometry width="50" height="50" relative="1" as="geometry">
            <mxPoint x="235" y="936" as="sourcePoint" />
            <mxPoint x="235" y="983" as="targetPoint" />
          </mxGeometry>
        </mxCell>
        <mxCell id="oy9rxF2P4usleRckeEOI-12" value="" style="endArrow=classic;html=1;rounded=0;strokeWidth=1.5;fillColor=#e1d5e7;strokeColor=#9673a6;entryX=0.5;entryY=0;entryDx=0;entryDy=0;" parent="1" edge="1">
          <mxGeometry width="50" height="50" relative="1" as="geometry">
            <mxPoint x="235" y="1033" as="sourcePoint" />
            <mxPoint x="234.5" y="1077" as="targetPoint" />
          </mxGeometry>
        </mxCell>
        <mxCell id="oy9rxF2P4usleRckeEOI-13" value="" style="rounded=0;whiteSpace=wrap;html=1;strokeWidth=1.5;fillColor=none;strokeColor=#9673a6;dashed=1;" parent="1" vertex="1">
          <mxGeometry x="110" y="1083" width="280" height="77" as="geometry" />
        </mxCell>
        <mxCell id="oy9rxF2P4usleRckeEOI-14" value="calleeServiceName" style="rounded=1;whiteSpace=wrap;html=1;strokeWidth=1.5;fillColor=none;strokeColor=#9673a6;" parent="1" vertex="1">
          <mxGeometry x="115" y="1101.5" width="110" height="40" as="geometry" />
        </mxCell>
        <mxCell id="oy9rxF2P4usleRckeEOI-15" value="callerServiceName" style="rounded=1;whiteSpace=wrap;html=1;strokeWidth=1.5;fillColor=none;strokeColor=#9673a6;" parent="1" vertex="1">
          <mxGeometry x="275" y="1101.5" width="110" height="40" as="geometry" />
        </mxCell>
        <mxCell id="oy9rxF2P4usleRckeEOI-16" value="" style="shape=flexArrow;endArrow=classic;html=1;rounded=0;endWidth=10;endSize=7;strokeWidth=1.5;fillColor=none;strokeColor=#9673a6;" parent="1" edge="1">
          <mxGeometry width="50" height="50" relative="1" as="geometry">
            <mxPoint x="231.5" y="1121" as="sourcePoint" />
            <mxPoint x="270.5" y="1121" as="targetPoint" />
          </mxGeometry>
        </mxCell>
        <mxCell id="oy9rxF2P4usleRckeEOI-17" value="msg(Server)" style="rounded=0;whiteSpace=wrap;html=1;strokeWidth=1.5;fillColor=none;strokeColor=none;" parent="1" vertex="1">
          <mxGeometry x="125" y="1143.5" width="90" height="10" as="geometry" />
        </mxCell>
        <mxCell id="oy9rxF2P4usleRckeEOI-18" value="newMsg(Client)" style="rounded=0;whiteSpace=wrap;html=1;strokeWidth=1.5;fillColor=none;strokeColor=none;" parent="1" vertex="1">
          <mxGeometry x="289" y="1143.5" width="90" height="10" as="geometry" />
        </mxCell>
        <mxCell id="oy9rxF2P4usleRckeEOI-22" value="trpc.app.&lt;b&gt;server&lt;/b&gt;.service" style="rounded=1;whiteSpace=wrap;html=1;strokeWidth=1.5;fillColor=#e1d5e7;strokeColor=#9673a6;sketch=1;curveFitting=1;jiggle=2;shadow=0;glass=0;" parent="1" vertex="1">
          <mxGeometry x="140" y="1220" width="140" height="40" as="geometry" />
        </mxCell>
        <mxCell id="oy9rxF2P4usleRckeEOI-23" value="" style="curved=1;endArrow=classic;html=1;rounded=0;strokeWidth=1.5;fontSize=12;fontColor=#1A1A1A;exitX=0.5;exitY=0;exitDx=0;exitDy=0;dashed=1;fillColor=#e1d5e7;strokeColor=#9673a6;entryX=0.564;entryY=0;entryDx=0;entryDy=0;entryPerimeter=0;" parent="1" source="oy9rxF2P4usleRckeEOI-17" target="oy9rxF2P4usleRckeEOI-22" edge="1">
          <mxGeometry width="50" height="50" relative="1" as="geometry">
            <mxPoint x="1020" y="955" as="sourcePoint" />
            <mxPoint x="1050" y="850" as="targetPoint" />
            <Array as="points">
              <mxPoint x="190" y="1190" />
            </Array>
          </mxGeometry>
        </mxCell>
        <mxCell id="oy9rxF2P4usleRckeEOI-24" value="格式" style="rounded=0;whiteSpace=wrap;html=1;strokeWidth=1.5;fillColor=none;strokeColor=none;" parent="1" vertex="1">
          <mxGeometry x="139" y="1181" width="60" height="10" as="geometry" />
        </mxCell>
        <mxCell id="tVW54GTKh_JOewecfuj1-5" value="" style="shape=flexArrow;endArrow=classic;html=1;rounded=0;endWidth=10;endSize=7;strokeWidth=1.5;fillColor=none;strokeColor=#2D7600;" parent="1" edge="1">
          <mxGeometry width="50" height="50" relative="1" as="geometry">
            <mxPoint x="541" y="1406" as="sourcePoint" />
            <mxPoint x="540.5" y="1442" as="targetPoint" />
          </mxGeometry>
        </mxCell>
        <mxCell id="tVW54GTKh_JOewecfuj1-6" value="&lt;b&gt;...&lt;/b&gt;" style="rounded=0;whiteSpace=wrap;html=1;strokeWidth=1.5;fillColor=none;strokeColor=none;" parent="1" vertex="1">
          <mxGeometry x="398" y="1557" width="44" height="11" as="geometry" />
        </mxCell>
        <mxCell id="gdKYo6TlWgg4qejeybsB-1" value="客户端" style="rounded=1;whiteSpace=wrap;html=1;strokeWidth=1.5;fillColor=none;strokeColor=#9673a6;" parent="1" vertex="1">
          <mxGeometry x="1052" y="890" width="68" height="40" as="geometry" />
        </mxCell>
        <mxCell id="gdKYo6TlWgg4qejeybsB-3" value="服务端&lt;br&gt;客户端" style="rounded=1;whiteSpace=wrap;html=1;strokeWidth=1.5;fillColor=#e1d5e7;strokeColor=#9673a6;" parent="1" vertex="1">
          <mxGeometry x="1200" y="890" width="68" height="40" as="geometry" />
        </mxCell>
        <mxCell id="gdKYo6TlWgg4qejeybsB-4" value="" style="endArrow=classic;html=1;rounded=0;strokeWidth=1.5;fillColor=#e1d5e7;strokeColor=#9673a6;entryX=0;entryY=0.5;entryDx=0;entryDy=0;" parent="1" target="gdKYo6TlWgg4qejeybsB-3" edge="1">
          <mxGeometry width="50" height="50" relative="1" as="geometry">
            <mxPoint x="1120" y="909.5" as="sourcePoint" />
            <mxPoint x="1160" y="910" as="targetPoint" />
          </mxGeometry>
        </mxCell>
        <mxCell id="gdKYo6TlWgg4qejeybsB-6" value="客户端" style="rounded=1;whiteSpace=wrap;html=1;strokeWidth=1.5;fillColor=none;strokeColor=#9673a6;" parent="1" vertex="1">
          <mxGeometry x="1350" y="890" width="68" height="40" as="geometry" />
        </mxCell>
        <mxCell id="gdKYo6TlWgg4qejeybsB-8" value="" style="endArrow=classic;html=1;rounded=0;strokeWidth=1.5;fillColor=#e1d5e7;strokeColor=#9673a6;entryX=0;entryY=0.5;entryDx=0;entryDy=0;" parent="1" edge="1">
          <mxGeometry width="50" height="50" relative="1" as="geometry">
            <mxPoint x="1268" y="909.5" as="sourcePoint" />
            <mxPoint x="1348" y="910" as="targetPoint" />
          </mxGeometry>
        </mxCell>
        <mxCell id="gdKYo6TlWgg4qejeybsB-9" value="&lt;div style=&quot;background-color: rgb(255, 255, 255);&quot;&gt;&lt;pre style=&quot;&quot;&gt;&lt;font face=&quot;Helvetica&quot; style=&quot;font-size: 12px;&quot;&gt;TransInfo透传&lt;/font&gt;&lt;/pre&gt;&lt;/div&gt;" style="rounded=0;whiteSpace=wrap;html=1;strokeWidth=1.5;fillColor=none;strokeColor=none;" parent="1" vertex="1">
          <mxGeometry x="1102" y="860" width="109" height="40" as="geometry" />
        </mxCell>
        <mxCell id="gdKYo6TlWgg4qejeybsB-10" value="&lt;div style=&quot;background-color: rgb(255, 255, 255);&quot;&gt;&lt;pre style=&quot;&quot;&gt;&lt;font face=&quot;Helvetica&quot; style=&quot;font-size: 12px;&quot;&gt;TransInfo透传&lt;/font&gt;&lt;/pre&gt;&lt;/div&gt;" style="rounded=0;whiteSpace=wrap;html=1;strokeWidth=1.5;fillColor=none;strokeColor=none;" parent="1" vertex="1">
          <mxGeometry x="1250" y="860" width="109" height="40" as="geometry" />
        </mxCell>
        <mxCell id="gdKYo6TlWgg4qejeybsB-11" value="trpc-naming-polaris" style="rounded=1;whiteSpace=wrap;html=1;strokeWidth=1.5;fillColor=none;strokeColor=#b85450;" parent="1" vertex="1">
          <mxGeometry x="1200" y="1008" width="70" height="40" as="geometry" />
        </mxCell>
        <mxCell id="gdKYo6TlWgg4qejeybsB-12" value="" style="endArrow=classic;html=1;rounded=0;dashed=1;strokeWidth=1.5;fontSize=14;fontColor=#1A1A1A;entryX=0.5;entryY=0;entryDx=0;entryDy=0;fillColor=#e1d5e7;strokeColor=#9673a6;" parent="1" target="gdKYo6TlWgg4qejeybsB-11" edge="1">
          <mxGeometry width="50" height="50" relative="1" as="geometry">
            <mxPoint x="1235" y="930" as="sourcePoint" />
            <mxPoint x="1140" y="1075" as="targetPoint" />
          </mxGeometry>
        </mxCell>
        <mxCell id="gdKYo6TlWgg4qejeybsB-14" value="&lt;div style=&quot;background-color: rgb(255, 255, 255);&quot;&gt;&lt;pre style=&quot;&quot;&gt;&lt;font face=&quot;Helvetica&quot; style=&quot;font-size: 12px;&quot;&gt;打开enableTransMeta&lt;/font&gt;配置&lt;/pre&gt;&lt;/div&gt;" style="rounded=0;whiteSpace=wrap;html=1;strokeWidth=1.5;fillColor=none;strokeColor=none;" parent="1" vertex="1">
          <mxGeometry x="1241" y="947" width="109" height="40" as="geometry" />
        </mxCell>
        <mxCell id="gdKYo6TlWgg4qejeybsB-15" value="" style="verticalLabelPosition=bottom;verticalAlign=top;html=1;shape=mxgraph.basic.layered_rect;dx=10;outlineConnect=0;whiteSpace=wrap;strokeWidth=1.5;fillColor=default;strokeColor=#9673a6;" parent="1" vertex="1">
          <mxGeometry x="1200" y="1129" width="70" height="50" as="geometry" />
        </mxCell>
        <mxCell id="gdKYo6TlWgg4qejeybsB-16" value="&lt;div style=&quot;background-color: rgb(255, 255, 255);&quot;&gt;&lt;pre style=&quot;&quot;&gt;&lt;font face=&quot;Helvetica&quot;&gt;北极星SDK&lt;/font&gt;&lt;/pre&gt;&lt;/div&gt;" style="rounded=0;whiteSpace=wrap;html=1;strokeWidth=1.5;fillColor=none;strokeColor=none;" parent="1" vertex="1">
          <mxGeometry x="1180.5" y="1129" width="109" height="40" as="geometry" />
        </mxCell>
        <mxCell id="gdKYo6TlWgg4qejeybsB-17" value="" style="endArrow=classic;html=1;rounded=0;dashed=1;strokeWidth=1.5;fontSize=14;fontColor=#1A1A1A;entryX=0.5;entryY=0;entryDx=0;entryDy=0;fillColor=#e1d5e7;strokeColor=#9673a6;" parent="1" edge="1">
          <mxGeometry width="50" height="50" relative="1" as="geometry">
            <mxPoint x="1233.5" y="1050" as="sourcePoint" />
            <mxPoint x="1233.5" y="1130" as="targetPoint" />
          </mxGeometry>
        </mxCell>
        <mxCell id="gdKYo6TlWgg4qejeybsB-19" value="框架透传TransInfo中以selector-meta-为前缀的KV转换为sourceService的MetaData" style="ellipse;shape=cloud;whiteSpace=wrap;html=1;fillColor=#e1d5e7;strokeColor=#9673a6;sketch=1;curveFitting=1;jiggle=2;" parent="1" vertex="1">
          <mxGeometry x="1630" y="1120" width="160" height="90" as="geometry" />
        </mxCell>
        <mxCell id="gdKYo6TlWgg4qejeybsB-20" value="" style="curved=1;endArrow=classic;html=1;rounded=0;strokeWidth=1.5;fontSize=12;fontColor=#1A1A1A;dashed=1;fillColor=#e1d5e7;strokeColor=#9673a6;entryX=0.908;entryY=1.025;entryDx=0;entryDy=0;exitX=0.179;exitY=0.525;exitDx=0;exitDy=0;exitPerimeter=0;entryPerimeter=0;" parent="1" source="gdKYo6TlWgg4qejeybsB-16" target="oy9rxF2P4usleRckeEOI-8" edge="1">
          <mxGeometry width="50" height="50" relative="1" as="geometry">
            <mxPoint x="1030" y="1005" as="sourcePoint" />
            <mxPoint x="1168" y="625" as="targetPoint" />
            <Array as="points">
              <mxPoint x="1160" y="1120" />
              <mxPoint x="1151" y="980" />
            </Array>
          </mxGeometry>
        </mxCell>
        <mxCell id="gdKYo6TlWgg4qejeybsB-21" value="&lt;div style=&quot;background-color: rgb(255, 255, 255);&quot;&gt;&lt;pre style=&quot;&quot;&gt;&lt;font face=&quot;Helvetica&quot;&gt;IP&lt;/font&gt;&lt;/pre&gt;&lt;/div&gt;" style="rounded=0;whiteSpace=wrap;html=1;strokeWidth=1.5;fillColor=none;strokeColor=none;" parent="1" vertex="1">
          <mxGeometry x="1136" y="1008" width="40.5" height="40" as="geometry" />
        </mxCell>
        <mxCell id="gdKYo6TlWgg4qejeybsB-23" value="env=&lt;br&gt;selector.Options.&lt;br&gt;SourceEnvName" style="rounded=1;whiteSpace=wrap;html=1;strokeWidth=1.5;fillColor=none;strokeColor=#b85450;" parent="1" vertex="1">
          <mxGeometry x="1330" y="1008" width="70" height="40" as="geometry" />
        </mxCell>
        <mxCell id="gdKYo6TlWgg4qejeybsB-24" value="msg.ServerMetaData()&lt;br&gt;(selector-meta-&lt;br&gt;前缀)" style="rounded=1;whiteSpace=wrap;html=1;strokeWidth=1.5;fillColor=none;strokeColor=#b85450;" parent="1" vertex="1">
          <mxGeometry x="1460" y="1008" width="90" height="40" as="geometry" />
        </mxCell>
        <mxCell id="gdKYo6TlWgg4qejeybsB-25" value="selector.Options.&lt;br&gt;SourceMetaData" style="rounded=1;whiteSpace=wrap;html=1;strokeWidth=1.5;fillColor=none;strokeColor=#b85450;" parent="1" vertex="1">
          <mxGeometry x="1590" y="1008" width="100" height="40" as="geometry" />
        </mxCell>
        <mxCell id="gdKYo6TlWgg4qejeybsB-26" value="" style="endArrow=classic;html=1;rounded=0;strokeWidth=1.5;fillColor=#f8cecc;strokeColor=#b85450;" parent="1" edge="1">
          <mxGeometry width="50" height="50" relative="1" as="geometry">
            <mxPoint x="1270" y="1028" as="sourcePoint" />
            <mxPoint x="1330" y="1029" as="targetPoint" />
          </mxGeometry>
        </mxCell>
        <mxCell id="gdKYo6TlWgg4qejeybsB-27" value="" style="endArrow=classic;html=1;rounded=0;strokeWidth=1.5;fillColor=#f8cecc;strokeColor=#b85450;" parent="1" edge="1">
          <mxGeometry width="50" height="50" relative="1" as="geometry">
            <mxPoint x="1400" y="1030" as="sourcePoint" />
            <mxPoint x="1460" y="1031" as="targetPoint" />
          </mxGeometry>
        </mxCell>
        <mxCell id="gdKYo6TlWgg4qejeybsB-28" value="" style="endArrow=classic;html=1;rounded=0;strokeWidth=1.5;fillColor=#f8cecc;strokeColor=#b85450;" parent="1" edge="1">
          <mxGeometry width="50" height="50" relative="1" as="geometry">
            <mxPoint x="1550" y="1030" as="sourcePoint" />
            <mxPoint x="1590" y="1030" as="targetPoint" />
          </mxGeometry>
        </mxCell>
        <mxCell id="gdKYo6TlWgg4qejeybsB-29" value="&lt;div style=&quot;background-color: rgb(255, 255, 255);&quot;&gt;&lt;pre style=&quot;&quot;&gt;&lt;font face=&quot;Helvetica&quot;&gt;metaData获取顺序，优先级后值覆盖前值&lt;/font&gt;&lt;/pre&gt;&lt;/div&gt;" style="rounded=0;whiteSpace=wrap;html=1;strokeWidth=1.5;fillColor=none;strokeColor=none;" parent="1" vertex="1">
          <mxGeometry x="1239" y="977" width="230" height="40" as="geometry" />
        </mxCell>
        <mxCell id="gdKYo6TlWgg4qejeybsB-30" value="&lt;div style=&quot;background-color: rgb(255, 255, 255);&quot;&gt;&lt;pre style=&quot;&quot;&gt;&lt;font face=&quot;Helvetica&quot;&gt;sourceService.MetaData&lt;/font&gt;&lt;/pre&gt;&lt;/div&gt;" style="rounded=0;whiteSpace=wrap;html=1;strokeWidth=1.5;fillColor=none;strokeColor=none;" parent="1" vertex="1">
          <mxGeometry x="1159" y="1070" width="200" height="40" as="geometry" />
        </mxCell>
        <mxCell id="gdKYo6TlWgg4qejeybsB-31" value="&lt;div style=&quot;background-color: rgb(255, 255, 255);&quot;&gt;&lt;pre style=&quot;&quot;&gt;&lt;font face=&quot;Helvetica&quot;&gt;api.GetOneInstanceRequest&lt;/font&gt;&lt;/pre&gt;&lt;/div&gt;" style="rounded=0;whiteSpace=wrap;html=1;strokeWidth=1.5;fillColor=none;strokeColor=none;" parent="1" vertex="1">
          <mxGeometry x="1275" y="1134" width="180" height="40" as="geometry" />
        </mxCell>
        <mxCell id="gdKYo6TlWgg4qejeybsB-32" value="元数据路由" style="rounded=1;whiteSpace=wrap;html=1;strokeWidth=1.5;fillColor=none;strokeColor=#9673a6;" parent="1" vertex="1">
          <mxGeometry x="1260" y="1220" width="68" height="40" as="geometry" />
        </mxCell>
        <mxCell id="gdKYo6TlWgg4qejeybsB-33" value="规则路由" style="rounded=1;whiteSpace=wrap;html=1;strokeWidth=1.5;fillColor=none;strokeColor=#9673a6;" parent="1" vertex="1">
          <mxGeometry x="1159" y="1220" width="68" height="40" as="geometry" />
        </mxCell>
        <mxCell id="gdKYo6TlWgg4qejeybsB-34" value="" style="endArrow=classic;html=1;rounded=0;dashed=1;strokeWidth=1.5;fontSize=14;fontColor=#1A1A1A;entryX=0.5;entryY=0;entryDx=0;entryDy=0;fillColor=#e1d5e7;strokeColor=#9673a6;" parent="1" target="gdKYo6TlWgg4qejeybsB-33" edge="1">
          <mxGeometry width="50" height="50" relative="1" as="geometry">
            <mxPoint x="1220" y="1180" as="sourcePoint" />
            <mxPoint x="1220" y="1260" as="targetPoint" />
          </mxGeometry>
        </mxCell>
        <mxCell id="gdKYo6TlWgg4qejeybsB-35" value="" style="endArrow=classic;html=1;rounded=0;dashed=1;strokeWidth=1.5;fontSize=14;fontColor=#1A1A1A;entryX=0.5;entryY=0;entryDx=0;entryDy=0;fillColor=#e1d5e7;strokeColor=#9673a6;exitX=0;exitY=0;exitDx=55;exitDy=50;exitPerimeter=0;" parent="1" source="gdKYo6TlWgg4qejeybsB-15" target="gdKYo6TlWgg4qejeybsB-32" edge="1">
          <mxGeometry width="50" height="50" relative="1" as="geometry">
            <mxPoint x="1230" y="1190" as="sourcePoint" />
            <mxPoint x="1203" y="1230" as="targetPoint" />
          </mxGeometry>
        </mxCell>
        <mxCell id="gdKYo6TlWgg4qejeybsB-36" value="" style="endArrow=classic;html=1;rounded=0;dashed=1;strokeWidth=1.5;fontSize=14;fontColor=#1A1A1A;fillColor=#e1d5e7;strokeColor=#9673a6;exitX=0;exitY=0.5;exitDx=0;exitDy=0;" parent="1" edge="1">
          <mxGeometry width="50" height="50" relative="1" as="geometry">
            <mxPoint x="1257" y="1240" as="sourcePoint" />
            <mxPoint x="1227" y="1240" as="targetPoint" />
          </mxGeometry>
        </mxCell>
        <mxCell id="gdKYo6TlWgg4qejeybsB-37" value="trpc-go多环境" style="rounded=1;whiteSpace=wrap;html=1;strokeWidth=1.5;fillColor=none;strokeColor=#9673a6;" parent="1" vertex="1">
          <mxGeometry x="1052" y="740" width="68" height="40" as="geometry" />
        </mxCell>
        <mxCell id="gdKYo6TlWgg4qejeybsB-38" value="" style="shape=curlyBracket;whiteSpace=wrap;html=1;rounded=1;labelPosition=left;verticalLabelPosition=middle;align=right;verticalAlign=middle;strokeWidth=1.5;" parent="1" vertex="1">
          <mxGeometry x="1130" y="710" width="20" height="100" as="geometry" />
        </mxCell>
        <mxCell id="gdKYo6TlWgg4qejeybsB-39" value="trpc-env" style="rounded=1;whiteSpace=wrap;html=1;strokeWidth=1.5;fillColor=none;strokeColor=#9673a6;" parent="1" vertex="1">
          <mxGeometry x="1159" y="690" width="68" height="40" as="geometry" />
        </mxCell>
        <mxCell id="gdKYo6TlWgg4qejeybsB-40" value="selector-meta-env" style="rounded=1;whiteSpace=wrap;html=1;strokeWidth=1.5;fillColor=none;strokeColor=#9673a6;" parent="1" vertex="1">
          <mxGeometry x="1159" y="790" width="68" height="40" as="geometry" />
        </mxCell>
        <mxCell id="gdKYo6TlWgg4qejeybsB-41" value="svr1" style="rounded=1;whiteSpace=wrap;html=1;strokeWidth=1.5;fillColor=none;strokeColor=#9673a6;" parent="1" vertex="1">
          <mxGeometry x="1860" y="890" width="68" height="40" as="geometry" />
        </mxCell>
        <mxCell id="gdKYo6TlWgg4qejeybsB-42" value="svr2" style="rounded=1;whiteSpace=wrap;html=1;strokeWidth=1.5;fillColor=none;strokeColor=#9673a6;" parent="1" vertex="1">
          <mxGeometry x="2000" y="890" width="68" height="40" as="geometry" />
        </mxCell>
        <mxCell id="gdKYo6TlWgg4qejeybsB-43" value="svr3" style="rounded=1;whiteSpace=wrap;html=1;strokeWidth=1.5;fillColor=none;strokeColor=#9673a6;" parent="1" vertex="1">
          <mxGeometry x="2140" y="890" width="68" height="40" as="geometry" />
        </mxCell>
        <mxCell id="gdKYo6TlWgg4qejeybsB-44" value="&lt;font color=&quot;#1a1a1a&quot;&gt;svr1&lt;/font&gt;" style="rounded=1;whiteSpace=wrap;html=1;strokeWidth=1.5;fillColor=none;strokeColor=#3A5431;dashed=1;fontColor=#ffffff;" parent="1" vertex="1">
          <mxGeometry x="1860" y="967" width="68" height="40" as="geometry" />
        </mxCell>
        <mxCell id="gdKYo6TlWgg4qejeybsB-47" value="&lt;font color=&quot;#1a1a1a&quot;&gt;svr1&lt;/font&gt;" style="rounded=1;whiteSpace=wrap;html=1;strokeWidth=1.5;fillColor=none;strokeColor=#432D57;dashed=1;fontColor=#ffffff;" parent="1" vertex="1">
          <mxGeometry x="1860" y="1043" width="68" height="40" as="geometry" />
        </mxCell>
        <mxCell id="gdKYo6TlWgg4qejeybsB-50" value="&lt;font color=&quot;#1a1a1a&quot;&gt;svr2&lt;/font&gt;" style="rounded=1;whiteSpace=wrap;html=1;strokeWidth=1.5;fillColor=none;strokeColor=#3A5431;dashed=1;fontColor=#ffffff;" parent="1" vertex="1">
          <mxGeometry x="2000" y="967" width="68" height="40" as="geometry" />
        </mxCell>
        <mxCell id="gdKYo6TlWgg4qejeybsB-51" value="&lt;font color=&quot;#1a1a1a&quot;&gt;svr3&lt;/font&gt;" style="rounded=1;whiteSpace=wrap;html=1;strokeWidth=1.5;fillColor=none;strokeColor=#3A5431;dashed=1;fontColor=#ffffff;" parent="1" vertex="1">
          <mxGeometry x="2140" y="967" width="68" height="40" as="geometry" />
        </mxCell>
        <mxCell id="gdKYo6TlWgg4qejeybsB-52" value="&lt;font color=&quot;#1a1a1a&quot;&gt;svr2&lt;/font&gt;" style="rounded=1;whiteSpace=wrap;html=1;strokeWidth=1.5;fillColor=none;strokeColor=#432D57;dashed=1;fontColor=#ffffff;" parent="1" vertex="1">
          <mxGeometry x="2000" y="1043" width="68" height="40" as="geometry" />
        </mxCell>
        <mxCell id="gdKYo6TlWgg4qejeybsB-53" value="&lt;font color=&quot;#1a1a1a&quot;&gt;svr3&lt;/font&gt;" style="rounded=1;whiteSpace=wrap;html=1;strokeWidth=1.5;fillColor=none;strokeColor=#432D57;dashed=1;fontColor=#ffffff;" parent="1" vertex="1">
          <mxGeometry x="2140" y="1043" width="68" height="40" as="geometry" />
        </mxCell>
        <mxCell id="gdKYo6TlWgg4qejeybsB-54" value="&lt;div style=&quot;background-color: rgb(255, 255, 255);&quot;&gt;&lt;pre style=&quot;&quot;&gt;&lt;font face=&quot;Helvetica&quot;&gt;基线环境&lt;/font&gt;&lt;/pre&gt;&lt;/div&gt;" style="rounded=0;whiteSpace=wrap;html=1;strokeWidth=1.5;fillColor=none;strokeColor=none;" parent="1" vertex="1">
          <mxGeometry x="1740" y="890" width="109" height="40" as="geometry" />
        </mxCell>
        <mxCell id="gdKYo6TlWgg4qejeybsB-55" value="&lt;div style=&quot;background-color: rgb(255, 255, 255);&quot;&gt;&lt;pre style=&quot;&quot;&gt;&lt;font face=&quot;Helvetica&quot;&gt;特性环境1&lt;/font&gt;&lt;/pre&gt;&lt;/div&gt;" style="rounded=0;whiteSpace=wrap;html=1;strokeWidth=1.5;fillColor=none;strokeColor=none;" parent="1" vertex="1">
          <mxGeometry x="1740" y="970" width="109" height="40" as="geometry" />
        </mxCell>
        <mxCell id="gdKYo6TlWgg4qejeybsB-56" value="&lt;div style=&quot;background-color: rgb(255, 255, 255);&quot;&gt;&lt;pre style=&quot;&quot;&gt;&lt;font face=&quot;Helvetica&quot;&gt;特性环境2&lt;/font&gt;&lt;/pre&gt;&lt;/div&gt;" style="rounded=0;whiteSpace=wrap;html=1;strokeWidth=1.5;fillColor=none;strokeColor=none;" parent="1" vertex="1">
          <mxGeometry x="1740" y="1043" width="109" height="40" as="geometry" />
        </mxCell>
        <mxCell id="gdKYo6TlWgg4qejeybsB-57" value="" style="endArrow=classic;html=1;rounded=0;strokeWidth=1.5;fillColor=#e1d5e7;strokeColor=#9673a6;" parent="1" edge="1">
          <mxGeometry width="50" height="50" relative="1" as="geometry">
            <mxPoint x="1928" y="909.5" as="sourcePoint" />
            <mxPoint x="2000" y="910" as="targetPoint" />
          </mxGeometry>
        </mxCell>
        <mxCell id="gdKYo6TlWgg4qejeybsB-58" value="" style="endArrow=classic;html=1;rounded=0;strokeWidth=1.5;fillColor=#e1d5e7;strokeColor=#9673a6;" parent="1" edge="1">
          <mxGeometry width="50" height="50" relative="1" as="geometry">
            <mxPoint x="2068" y="909.5" as="sourcePoint" />
            <mxPoint x="2140" y="910" as="targetPoint" />
          </mxGeometry>
        </mxCell>
        <mxCell id="gdKYo6TlWgg4qejeybsB-59" value="base_env" style="shape=note;whiteSpace=wrap;html=1;backgroundOutline=1;darkOpacity=0.05;strokeWidth=1.5;fillColor=#f5f5f5;strokeColor=#666666;fontColor=#333333;" parent="1" vertex="1">
          <mxGeometry x="1910" y="810" width="90" height="50" as="geometry" />
        </mxCell>
        <mxCell id="gdKYo6TlWgg4qejeybsB-60" value="base_env" style="shape=note;whiteSpace=wrap;html=1;backgroundOutline=1;darkOpacity=0.05;strokeWidth=1.5;fillColor=#f5f5f5;strokeColor=#666666;fontColor=#333333;" parent="1" vertex="1">
          <mxGeometry x="2080" y="810" width="85.5" height="50" as="geometry" />
        </mxCell>
        <mxCell id="gdKYo6TlWgg4qejeybsB-61" value="请求匹配规则：&lt;br&gt;env=PARAMETAR&lt;br&gt;实例匹配规则:&lt;br&gt;env=PARAMETAR" style="shape=note;whiteSpace=wrap;html=1;backgroundOutline=1;darkOpacity=0.05;strokeWidth=1.5;fillColor=none;strokeColor=#b85450;dashed=1;" parent="1" vertex="1">
          <mxGeometry x="1910" y="1099" width="105.5" height="70" as="geometry" />
        </mxCell>
        <mxCell id="gdKYo6TlWgg4qejeybsB-63" value="请求匹配规则：&lt;br&gt;env=PARAMETAR&lt;br&gt;实例匹配规则:&lt;br&gt;env=PARAMETAR" style="shape=note;whiteSpace=wrap;html=1;backgroundOutline=1;darkOpacity=0.05;strokeWidth=1.5;fillColor=none;strokeColor=#b85450;dashed=1;" parent="1" vertex="1">
          <mxGeometry x="2068" y="1099" width="105.5" height="70" as="geometry" />
        </mxCell>
        <mxCell id="gdKYo6TlWgg4qejeybsB-66" value="" style="endArrow=classic;html=1;rounded=0;dashed=1;strokeWidth=1.5;fontSize=14;fontColor=#1A1A1A;entryX=0;entryY=0;entryDx=90.5;entryDy=15;fillColor=#e1d5e7;strokeColor=#9673a6;exitX=0.14;exitY=1.075;exitDx=0;exitDy=0;exitPerimeter=0;entryPerimeter=0;" parent="1" source="gdKYo6TlWgg4qejeybsB-52" target="gdKYo6TlWgg4qejeybsB-61" edge="1">
          <mxGeometry width="50" height="50" relative="1" as="geometry">
            <mxPoint x="1670" y="1153.5" as="sourcePoint" />
            <mxPoint x="1670" y="1231.5" as="targetPoint" />
          </mxGeometry>
        </mxCell>
        <mxCell id="gdKYo6TlWgg4qejeybsB-67" value="" style="endArrow=classic;html=1;rounded=0;dashed=1;strokeWidth=1.5;fontSize=14;fontColor=#1A1A1A;entryX=0;entryY=0;entryDx=90.5;entryDy=15;fillColor=#e1d5e7;strokeColor=#9673a6;exitX=0.75;exitY=1;exitDx=0;exitDy=0;entryPerimeter=0;" parent="1" source="gdKYo6TlWgg4qejeybsB-53" target="gdKYo6TlWgg4qejeybsB-63" edge="1">
          <mxGeometry width="50" height="50" relative="1" as="geometry">
            <mxPoint x="2020" y="1096" as="sourcePoint" />
            <mxPoint x="2011" y="1124" as="targetPoint" />
          </mxGeometry>
        </mxCell>
        <mxCell id="gdKYo6TlWgg4qejeybsB-68" value="" style="endArrow=classic;html=1;rounded=0;dashed=1;strokeWidth=1.5;fontSize=14;fontColor=#1A1A1A;entryX=0.626;entryY=1.014;entryDx=0;entryDy=0;fillColor=#e1d5e7;strokeColor=#9673a6;exitX=0;exitY=0;exitDx=0;exitDy=0;entryPerimeter=0;" parent="1" source="gdKYo6TlWgg4qejeybsB-42" target="gdKYo6TlWgg4qejeybsB-59" edge="1">
          <mxGeometry width="50" height="50" relative="1" as="geometry">
            <mxPoint x="2030" y="1106" as="sourcePoint" />
            <mxPoint x="2021" y="1134" as="targetPoint" />
          </mxGeometry>
        </mxCell>
        <mxCell id="gdKYo6TlWgg4qejeybsB-69" value="" style="endArrow=classic;html=1;rounded=0;dashed=1;strokeWidth=1.5;fontSize=14;fontColor=#1A1A1A;entryX=1;entryY=1;entryDx=0;entryDy=0;fillColor=#e1d5e7;strokeColor=#9673a6;exitX=0.75;exitY=0;exitDx=0;exitDy=0;entryPerimeter=0;" parent="1" source="gdKYo6TlWgg4qejeybsB-43" target="gdKYo6TlWgg4qejeybsB-60" edge="1">
          <mxGeometry width="50" height="50" relative="1" as="geometry">
            <mxPoint x="2040" y="1116" as="sourcePoint" />
            <mxPoint x="2031" y="1144" as="targetPoint" />
          </mxGeometry>
        </mxCell>
        <mxCell id="gdKYo6TlWgg4qejeybsB-70" value="&lt;div style=&quot;background-color: rgb(255, 255, 255);&quot;&gt;&lt;pre style=&quot;&quot;&gt;&lt;font face=&quot;Helvetica&quot;&gt;兜底规则&lt;/font&gt;&lt;/pre&gt;&lt;/div&gt;" style="rounded=0;whiteSpace=wrap;html=1;strokeWidth=1.5;fillColor=none;strokeColor=none;" parent="1" vertex="1">
          <mxGeometry x="1990" y="870" width="50" height="10" as="geometry" />
        </mxCell>
        <mxCell id="gdKYo6TlWgg4qejeybsB-71" value="&lt;div style=&quot;background-color: rgb(255, 255, 255);&quot;&gt;&lt;pre style=&quot;&quot;&gt;&lt;font face=&quot;Helvetica&quot;&gt;兜底规则&lt;/font&gt;&lt;/pre&gt;&lt;/div&gt;" style="rounded=0;whiteSpace=wrap;html=1;strokeWidth=1.5;fillColor=none;strokeColor=none;" parent="1" vertex="1">
          <mxGeometry x="2173.5" y="870" width="50" height="10" as="geometry" />
        </mxCell>
        <mxCell id="gdKYo6TlWgg4qejeybsB-72" value="&lt;div style=&quot;background-color: rgb(255, 255, 255);&quot;&gt;&lt;pre style=&quot;&quot;&gt;&lt;font face=&quot;Helvetica&quot;&gt;新增规则&lt;/font&gt;&lt;/pre&gt;&lt;/div&gt;" style="rounded=0;whiteSpace=wrap;html=1;strokeWidth=1.5;fillColor=none;strokeColor=none;" parent="1" vertex="1">
          <mxGeometry x="2000" y="1091.5" width="50" height="10" as="geometry" />
        </mxCell>
        <mxCell id="gdKYo6TlWgg4qejeybsB-73" value="&lt;div style=&quot;background-color: rgb(255, 255, 255);&quot;&gt;&lt;pre style=&quot;&quot;&gt;&lt;font face=&quot;Helvetica&quot;&gt;新增规则&lt;/font&gt;&lt;/pre&gt;&lt;/div&gt;" style="rounded=0;whiteSpace=wrap;html=1;strokeWidth=1.5;fillColor=none;strokeColor=none;" parent="1" vertex="1">
          <mxGeometry x="2173.5" y="1091.5" width="50" height="10" as="geometry" />
        </mxCell>
        <mxCell id="gdKYo6TlWgg4qejeybsB-74" value="" style="curved=1;endArrow=classic;html=1;rounded=0;strokeWidth=1.5;fontSize=12;fontColor=#1A1A1A;dashed=1;fillColor=#e1d5e7;strokeColor=#9673a6;entryX=0;entryY=0.5;entryDx=0;entryDy=0;exitX=1;exitY=1;exitDx=0;exitDy=0;" parent="1" source="gdKYo6TlWgg4qejeybsB-41" target="gdKYo6TlWgg4qejeybsB-52" edge="1">
          <mxGeometry width="50" height="50" relative="1" as="geometry">
            <mxPoint x="1789" y="1393" as="sourcePoint" />
            <mxPoint x="1784" y="1174" as="targetPoint" />
            <Array as="points">
              <mxPoint x="1960" y="1020" />
            </Array>
          </mxGeometry>
        </mxCell>
        <mxCell id="gdKYo6TlWgg4qejeybsB-75" value="" style="curved=1;endArrow=classic;html=1;rounded=0;strokeWidth=1.5;fontSize=12;fontColor=#1A1A1A;dashed=1;fillColor=#e1d5e7;strokeColor=#9673a6;entryX=0;entryY=1;entryDx=0;entryDy=0;exitX=1;exitY=0.5;exitDx=0;exitDy=0;" parent="1" source="gdKYo6TlWgg4qejeybsB-52" target="gdKYo6TlWgg4qejeybsB-43" edge="1">
          <mxGeometry width="50" height="50" relative="1" as="geometry">
            <mxPoint x="1938" y="940" as="sourcePoint" />
            <mxPoint x="2010" y="1073" as="targetPoint" />
            <Array as="points">
              <mxPoint x="2110" y="1020" />
            </Array>
          </mxGeometry>
        </mxCell>
        <mxCell id="gdKYo6TlWgg4qejeybsB-79" value="PARAMETER和VARIABLE&lt;br&gt;路由规则" style="ellipse;shape=cloud;whiteSpace=wrap;html=1;fillColor=#bac8d3;strokeColor=#23445d;sketch=1;curveFitting=1;jiggle=2;" parent="1" vertex="1">
          <mxGeometry x="1951" y="1169" width="166" height="90" as="geometry" />
        </mxCell>
        <mxCell id="gdKYo6TlWgg4qejeybsB-80" value="trpc-go使用全链路透传的trpc-env默认支持多环境路由" style="ellipse;shape=cloud;whiteSpace=wrap;html=1;fillColor=#bac8d3;strokeColor=#23445d;sketch=1;curveFitting=1;jiggle=2;" parent="1" vertex="1">
          <mxGeometry x="1241" y="655" width="166" height="90" as="geometry" />
        </mxCell>
        <mxCell id="gdKYo6TlWgg4qejeybsB-81" value="WithServiceName" style="rounded=1;whiteSpace=wrap;html=1;strokeWidth=1.5;fillColor=none;strokeColor=#9673a6;" parent="1" vertex="1">
          <mxGeometry x="1480" y="700" width="68" height="40" as="geometry" />
        </mxCell>
        <mxCell id="gdKYo6TlWgg4qejeybsB-82" value="WithTarget" style="rounded=1;whiteSpace=wrap;html=1;strokeWidth=1.5;fillColor=none;strokeColor=#9673a6;" parent="1" vertex="1">
          <mxGeometry x="1480" y="790" width="68" height="40" as="geometry" />
        </mxCell>
        <mxCell id="gdKYo6TlWgg4qejeybsB-83" value="使用Target指定的Selector(如Polaris)" style="rounded=1;whiteSpace=wrap;html=1;strokeWidth=1.5;fillColor=none;strokeColor=#9673a6;" parent="1" vertex="1">
          <mxGeometry x="1610" y="790" width="110" height="40" as="geometry" />
        </mxCell>
        <mxCell id="gdKYo6TlWgg4qejeybsB-84" value="使用默认的trpc-selector" style="rounded=1;whiteSpace=wrap;html=1;strokeWidth=1.5;fillColor=none;strokeColor=#9673a6;" parent="1" vertex="1">
          <mxGeometry x="1608" y="700" width="112" height="40" as="geometry" />
        </mxCell>
        <mxCell id="gdKYo6TlWgg4qejeybsB-85" value="" style="endArrow=classic;html=1;rounded=0;strokeWidth=1.5;fillColor=#e1d5e7;strokeColor=#9673a6;" parent="1" edge="1">
          <mxGeometry width="50" height="50" relative="1" as="geometry">
            <mxPoint x="1548" y="719" as="sourcePoint" />
            <mxPoint x="1610" y="720" as="targetPoint" />
          </mxGeometry>
        </mxCell>
        <mxCell id="gdKYo6TlWgg4qejeybsB-86" value="" style="endArrow=classic;html=1;rounded=0;strokeWidth=1.5;fillColor=#e1d5e7;strokeColor=#9673a6;" parent="1" edge="1">
          <mxGeometry width="50" height="50" relative="1" as="geometry">
            <mxPoint x="1548" y="810" as="sourcePoint" />
            <mxPoint x="1610" y="811" as="targetPoint" />
          </mxGeometry>
        </mxCell>
        <mxCell id="gdKYo6TlWgg4qejeybsB-87" value="" style="shape=curlyBracket;whiteSpace=wrap;html=1;rounded=1;labelPosition=left;verticalLabelPosition=middle;align=right;verticalAlign=middle;strokeWidth=1.5;" parent="1" vertex="1">
          <mxGeometry x="1455" y="720" width="20" height="100" as="geometry" />
        </mxCell>
        <mxCell id="gdKYo6TlWgg4qejeybsB-88" value="req.TransInfo" style="rounded=1;whiteSpace=wrap;html=1;strokeWidth=1.5;fillColor=none;strokeColor=#b85450;" parent="1" vertex="1">
          <mxGeometry x="1530" y="1145" width="90" height="40" as="geometry" />
        </mxCell>
        <mxCell id="gdKYo6TlWgg4qejeybsB-89" value="" style="curved=1;endArrow=none;html=1;rounded=0;strokeWidth=1.5;fontSize=12;fontColor=#1A1A1A;dashed=1;fillColor=#f8cecc;strokeColor=#b85450;exitX=0.179;exitY=0.525;exitDx=0;exitDy=0;exitPerimeter=0;startArrow=classic;startFill=1;endFill=0;" parent="1" target="gdKYo6TlWgg4qejeybsB-88" edge="1">
          <mxGeometry width="50" height="50" relative="1" as="geometry">
            <mxPoint x="1509" y="1048" as="sourcePoint" />
            <mxPoint x="1504" y="829" as="targetPoint" />
            <Array as="points">
              <mxPoint x="1520" y="1080" />
              <mxPoint x="1580" y="1100" />
            </Array>
          </mxGeometry>
        </mxCell>
        <mxCell id="gdKYo6TlWgg4qejeybsB-91" value="msg.EnvName" style="rounded=1;whiteSpace=wrap;html=1;strokeWidth=1.5;fillColor=none;strokeColor=#b85450;" parent="1" vertex="1">
          <mxGeometry x="1385" y="1166" width="90" height="40" as="geometry" />
        </mxCell>
        <mxCell id="gdKYo6TlWgg4qejeybsB-92" value="" style="curved=1;endArrow=none;html=1;rounded=0;strokeWidth=1.5;fontSize=12;fontColor=#1A1A1A;dashed=1;fillColor=#f8cecc;strokeColor=#b85450;exitX=0.179;exitY=0.525;exitDx=0;exitDy=0;exitPerimeter=0;startArrow=classic;startFill=1;endFill=0;entryX=0.5;entryY=0;entryDx=0;entryDy=0;" parent="1" target="gdKYo6TlWgg4qejeybsB-91" edge="1">
          <mxGeometry width="50" height="50" relative="1" as="geometry">
            <mxPoint x="1370" y="1050" as="sourcePoint" />
            <mxPoint x="1438" y="1147" as="targetPoint" />
            <Array as="points">
              <mxPoint x="1381" y="1082" />
              <mxPoint x="1430" y="1100" />
            </Array>
          </mxGeometry>
        </mxCell>
        <mxCell id="gdKYo6TlWgg4qejeybsB-93" value="配置的EnvName" style="rounded=1;whiteSpace=wrap;html=1;strokeWidth=1.5;fillColor=none;strokeColor=#b85450;" parent="1" vertex="1">
          <mxGeometry x="1400" y="1259" width="90" height="40" as="geometry" />
        </mxCell>
        <mxCell id="gdKYo6TlWgg4qejeybsB-94" value="" style="curved=1;endArrow=none;html=1;rounded=0;strokeWidth=1.5;fontSize=12;fontColor=#1A1A1A;dashed=1;fillColor=#f8cecc;strokeColor=#b85450;exitX=0.179;exitY=0.525;exitDx=0;exitDy=0;exitPerimeter=0;startArrow=classic;startFill=1;endFill=0;entryX=0.5;entryY=0;entryDx=0;entryDy=0;" parent="1" target="gdKYo6TlWgg4qejeybsB-93" edge="1">
          <mxGeometry width="50" height="50" relative="1" as="geometry">
            <mxPoint x="1430" y="1206" as="sourcePoint" />
            <mxPoint x="1490" y="1322" as="targetPoint" />
            <Array as="points">
              <mxPoint x="1441" y="1238" />
            </Array>
          </mxGeometry>
        </mxCell>
        <mxCell id="gdKYo6TlWgg4qejeybsB-95" value="区别" style="rounded=1;whiteSpace=wrap;html=1;strokeWidth=1.5;fillColor=none;strokeColor=#9673a6;" parent="1" vertex="1">
          <mxGeometry x="1385" y="750" width="68" height="40" as="geometry" />
        </mxCell>
        <mxCell id="_sPBnabsmY97HrsPwDeZ-1" value="关闭多环境路由" style="rounded=1;whiteSpace=wrap;html=1;strokeWidth=1.5;fillColor=none;strokeColor=#9673a6;" parent="1" vertex="1">
          <mxGeometry x="1287.5" y="1394.5" width="68" height="40" as="geometry" />
        </mxCell>
        <mxCell id="_sPBnabsmY97HrsPwDeZ-2" value="清空环境信息" style="rounded=1;whiteSpace=wrap;html=1;strokeWidth=1.5;fillColor=none;strokeColor=#9673a6;" parent="1" vertex="1">
          <mxGeometry x="1438.5" y="1394" width="68" height="40" as="geometry" />
        </mxCell>
        <mxCell id="_sPBnabsmY97HrsPwDeZ-3" value="if opts.DisableServiceRouter {&lt;br&gt;msg.WithEnvTransfer(&quot;&quot;)&lt;br&gt;}" style="ellipse;shape=cloud;whiteSpace=wrap;html=1;strokeWidth=1;fillColor=#f5f5f5;fontColor=#333333;strokeColor=#666666;" parent="1" vertex="1">
          <mxGeometry x="1302" y="1427.25" width="193.5" height="79.5" as="geometry" />
        </mxCell>
        <mxCell id="_sPBnabsmY97HrsPwDeZ-4" value="" style="endArrow=classic;html=1;rounded=0;strokeWidth=1.5;fillColor=#e1d5e7;strokeColor=#9673a6;entryX=0;entryY=0.5;entryDx=0;entryDy=0;" parent="1" edge="1">
          <mxGeometry width="50" height="50" relative="1" as="geometry">
            <mxPoint x="1358.5" y="1414" as="sourcePoint" />
            <mxPoint x="1438.5" y="1414.5" as="targetPoint" />
          </mxGeometry>
        </mxCell>
        <mxCell id="_sPBnabsmY97HrsPwDeZ-5" value="selectNode" style="rounded=1;whiteSpace=wrap;html=1;strokeWidth=1.5;fillColor=none;strokeColor=#9673a6;" parent="1" vertex="1">
          <mxGeometry x="1141.5" y="1394.5" width="68" height="40" as="geometry" />
        </mxCell>
        <mxCell id="_sPBnabsmY97HrsPwDeZ-6" value="" style="endArrow=classic;html=1;rounded=0;strokeWidth=1.5;fillColor=#e1d5e7;strokeColor=#9673a6;entryX=0;entryY=0.5;entryDx=0;entryDy=0;" parent="1" edge="1">
          <mxGeometry width="50" height="50" relative="1" as="geometry">
            <mxPoint x="1209.5" y="1414" as="sourcePoint" />
            <mxPoint x="1289.5" y="1414.5" as="targetPoint" />
          </mxGeometry>
        </mxCell>
        <mxCell id="_sPBnabsmY97HrsPwDeZ-7" value="" style="curved=1;endArrow=classic;html=1;rounded=0;strokeWidth=1.5;fontSize=12;fontColor=#1A1A1A;exitX=1;exitY=1;exitDx=0;exitDy=0;dashed=1;fillColor=#e1d5e7;strokeColor=#9673a6;entryX=0.043;entryY=0.01;entryDx=0;entryDy=0;entryPerimeter=0;" parent="1" source="wHmQGSl_OAx13h6DnjfR-78" target="_sPBnabsmY97HrsPwDeZ-8" edge="1">
          <mxGeometry width="50" height="50" relative="1" as="geometry">
            <mxPoint x="1190" y="1318" as="sourcePoint" />
            <mxPoint x="1239" y="1394" as="targetPoint" />
            <Array as="points">
              <mxPoint x="1080" y="980" />
            </Array>
          </mxGeometry>
        </mxCell>
        <mxCell id="_sPBnabsmY97HrsPwDeZ-9" value="&lt;div style=&quot;background-color: rgb(255, 255, 255);&quot;&gt;&lt;pre style=&quot;&quot;&gt;&lt;font face=&quot;Helvetica&quot;&gt;多环境路由&lt;/font&gt;&lt;/pre&gt;&lt;/div&gt;" style="rounded=0;whiteSpace=wrap;html=1;strokeWidth=1.5;fillColor=none;strokeColor=none;" parent="1" vertex="1">
          <mxGeometry x="1130" y="1447" width="190" height="40" as="geometry" />
        </mxCell>
        <mxCell id="zBmCaFu8ZHRtvucacrPU-1" value="SeverCodec.&lt;br&gt;Decode" style="rounded=1;whiteSpace=wrap;html=1;strokeWidth=1.5;fillColor=none;strokeColor=#9673a6;" parent="1" vertex="1">
          <mxGeometry x="1268" y="500" width="68" height="40" as="geometry" />
        </mxCell>
        <mxCell id="zBmCaFu8ZHRtvucacrPU-2" value="" style="curved=1;endArrow=classic;html=1;rounded=0;strokeWidth=1.5;fontSize=12;fontColor=#1A1A1A;dashed=1;fillColor=#e1d5e7;strokeColor=#9673a6;entryX=0.1;entryY=0.5;entryDx=0;entryDy=0;exitX=0.5;exitY=0;exitDx=0;exitDy=0;entryPerimeter=0;" parent="1" source="gdKYo6TlWgg4qejeybsB-39" target="zBmCaFu8ZHRtvucacrPU-14" edge="1">
          <mxGeometry width="50" height="50" relative="1" as="geometry">
            <mxPoint x="1254" y="804" as="sourcePoint" />
            <mxPoint x="1249" y="585" as="targetPoint" />
            <Array as="points">
              <mxPoint x="1180" y="620" />
            </Array>
          </mxGeometry>
        </mxCell>
        <mxCell id="zBmCaFu8ZHRtvucacrPU-3" value="从请求获取msg信息" style="rounded=1;whiteSpace=wrap;html=1;strokeWidth=1.5;fillColor=none;strokeColor=#9673a6;" parent="1" vertex="1">
          <mxGeometry x="1418" y="500" width="68" height="40" as="geometry" />
        </mxCell>
        <mxCell id="zBmCaFu8ZHRtvucacrPU-4" value="" style="endArrow=classic;html=1;rounded=0;strokeWidth=1.5;fillColor=#e1d5e7;strokeColor=#9673a6;entryX=0;entryY=0.5;entryDx=0;entryDy=0;" parent="1" edge="1">
          <mxGeometry width="50" height="50" relative="1" as="geometry">
            <mxPoint x="1338" y="520" as="sourcePoint" />
            <mxPoint x="1418" y="520.5" as="targetPoint" />
          </mxGeometry>
        </mxCell>
        <mxCell id="zBmCaFu8ZHRtvucacrPU-5" value="&lt;div style=&quot;background-color: rgb(255, 255, 255);&quot;&gt;&lt;pre style=&quot;&quot;&gt;&lt;font face=&quot;Helvetica&quot; style=&quot;font-size: 12px;&quot;&gt;msgWithRequestProtocol&lt;/font&gt;&lt;/pre&gt;&lt;/div&gt;" style="rounded=0;whiteSpace=wrap;html=1;strokeWidth=1.5;fillColor=none;strokeColor=none;" parent="1" vertex="1">
          <mxGeometry x="1320" y="460" width="109" height="40" as="geometry" />
        </mxCell>
        <mxCell id="zBmCaFu8ZHRtvucacrPU-6" value="EnvTranfer" style="rounded=1;whiteSpace=wrap;html=1;strokeWidth=1.5;fillColor=none;strokeColor=#9673a6;" parent="1" vertex="1">
          <mxGeometry x="1566" y="500" width="68" height="40" as="geometry" />
        </mxCell>
        <mxCell id="zBmCaFu8ZHRtvucacrPU-7" value="" style="endArrow=classic;html=1;rounded=0;strokeWidth=1.5;fillColor=#e1d5e7;strokeColor=#9673a6;entryX=0;entryY=0.5;entryDx=0;entryDy=0;" parent="1" edge="1">
          <mxGeometry width="50" height="50" relative="1" as="geometry">
            <mxPoint x="1487" y="519" as="sourcePoint" />
            <mxPoint x="1567" y="519.5" as="targetPoint" />
          </mxGeometry>
        </mxCell>
        <mxCell id="zBmCaFu8ZHRtvucacrPU-8" value="&lt;div style=&quot;background-color: rgb(255, 255, 255);&quot;&gt;&lt;pre style=&quot;&quot;&gt;&lt;font face=&quot;Helvetica&quot; style=&quot;font-size: 12px;&quot;&gt;req.TransInfo[trpc-env]&lt;/font&gt;&lt;/pre&gt;&lt;/div&gt;" style="rounded=0;whiteSpace=wrap;html=1;strokeWidth=1.5;fillColor=none;strokeColor=none;" parent="1" vertex="1">
          <mxGeometry x="1486" y="465" width="109" height="40" as="geometry" />
        </mxCell>
        <mxCell id="zBmCaFu8ZHRtvucacrPU-9" value="ClientCodec.&lt;br&gt;Encode" style="rounded=1;whiteSpace=wrap;html=1;strokeWidth=1.5;fillColor=none;strokeColor=#9673a6;" parent="1" vertex="1">
          <mxGeometry x="1268" y="577.5" width="68" height="40" as="geometry" />
        </mxCell>
        <mxCell id="zBmCaFu8ZHRtvucacrPU-10" value="构造req.TransInfo" style="rounded=1;whiteSpace=wrap;html=1;strokeWidth=1.5;fillColor=none;strokeColor=#9673a6;" parent="1" vertex="1">
          <mxGeometry x="1418" y="575" width="68" height="40" as="geometry" />
        </mxCell>
        <mxCell id="zBmCaFu8ZHRtvucacrPU-11" value="" style="endArrow=classic;html=1;rounded=0;strokeWidth=1.5;fillColor=#e1d5e7;strokeColor=#9673a6;entryX=0;entryY=0.5;entryDx=0;entryDy=0;" parent="1" edge="1">
          <mxGeometry width="50" height="50" relative="1" as="geometry">
            <mxPoint x="1338" y="597" as="sourcePoint" />
            <mxPoint x="1418" y="597.5" as="targetPoint" />
          </mxGeometry>
        </mxCell>
        <mxCell id="zBmCaFu8ZHRtvucacrPU-14" value="" style="shape=curlyBracket;whiteSpace=wrap;html=1;rounded=1;labelPosition=left;verticalLabelPosition=middle;align=right;verticalAlign=middle;strokeWidth=1.5;" parent="1" vertex="1">
          <mxGeometry x="1248" y="520" width="20" height="80" as="geometry" />
        </mxCell>
        <mxCell id="zBmCaFu8ZHRtvucacrPU-16" value="&lt;div style=&quot;background-color: rgb(255, 255, 255);&quot;&gt;&lt;pre style=&quot;&quot;&gt;&lt;font face=&quot;Helvetica&quot; style=&quot;font-size: 12px;&quot;&gt;updateRequestProtocol&lt;/font&gt;&lt;/pre&gt;&lt;/div&gt;" style="rounded=0;whiteSpace=wrap;html=1;strokeWidth=1.5;fillColor=none;strokeColor=none;" parent="1" vertex="1">
          <mxGeometry x="1320" y="545" width="109" height="40" as="geometry" />
        </mxCell>
        <mxCell id="xYFo13c3qf6ceHfBsj0E-1" value="" style="curved=1;endArrow=classic;html=1;rounded=0;strokeWidth=1.5;fontSize=12;fontColor=#1A1A1A;dashed=1;fillColor=#d80073;strokeColor=#A50040;entryX=0.5;entryY=0;entryDx=0;entryDy=0;" parent="1" target="xYFo13c3qf6ceHfBsj0E-5" edge="1">
          <mxGeometry width="50" height="50" relative="1" as="geometry">
            <mxPoint x="170" y="910" as="sourcePoint" />
            <mxPoint y="1010" as="targetPoint" />
            <Array as="points">
              <mxPoint x="130" y="930" />
              <mxPoint x="100" y="950" />
              <mxPoint x="60" y="980" />
            </Array>
          </mxGeometry>
        </mxCell>
        <mxCell id="xYFo13c3qf6ceHfBsj0E-2" value="服务端" style="rounded=1;whiteSpace=wrap;html=1;strokeWidth=1.5;fillColor=#e1d5e7;strokeColor=#9673a6;" parent="1" vertex="1">
          <mxGeometry x="20" y="890" width="90" height="40" as="geometry" />
        </mxCell>
        <mxCell id="xYFo13c3qf6ceHfBsj0E-3" value="" style="endArrow=classic;html=1;rounded=0;strokeWidth=1.5;fillColor=#e1d5e7;strokeColor=#9673a6;" parent="1" edge="1">
          <mxGeometry width="50" height="50" relative="1" as="geometry">
            <mxPoint x="116" y="909.5" as="sourcePoint" />
            <mxPoint x="186" y="910" as="targetPoint" />
          </mxGeometry>
        </mxCell>
        <mxCell id="xYFo13c3qf6ceHfBsj0E-4" value="收到请求后作为client调用下游" style="rounded=0;whiteSpace=wrap;html=1;strokeWidth=1.5;fillColor=none;strokeColor=none;" parent="1" vertex="1">
          <mxGeometry x="100" y="855" width="109" height="40" as="geometry" />
        </mxCell>
        <mxCell id="xYFo13c3qf6ceHfBsj0E-5" value="service.Handle" style="rounded=1;whiteSpace=wrap;html=1;strokeWidth=1.5;fillColor=none;strokeColor=#9673a6;" parent="1" vertex="1">
          <mxGeometry x="-20" y="1017" width="90" height="40" as="geometry" />
        </mxCell>
        <mxCell id="xYFo13c3qf6ceHfBsj0E-6" value="service.decode" style="rounded=1;whiteSpace=wrap;html=1;strokeWidth=1.5;fillColor=none;strokeColor=#9673a6;" parent="1" vertex="1">
          <mxGeometry x="-20" y="1101.5" width="90" height="40" as="geometry" />
        </mxCell>
        <mxCell id="xYFo13c3qf6ceHfBsj0E-7" value="" style="endArrow=classic;html=1;rounded=0;strokeWidth=1.5;fillColor=#e1d5e7;strokeColor=#9673a6;entryX=0.5;entryY=0;entryDx=0;entryDy=0;exitX=0.5;exitY=1;exitDx=0;exitDy=0;" parent="1" source="xYFo13c3qf6ceHfBsj0E-5" target="xYFo13c3qf6ceHfBsj0E-6" edge="1">
          <mxGeometry width="50" height="50" relative="1" as="geometry">
            <mxPoint x="20" y="1057" as="sourcePoint" />
            <mxPoint x="60" y="1057.5" as="targetPoint" />
          </mxGeometry>
        </mxCell>
        <mxCell id="xYFo13c3qf6ceHfBsj0E-8" value="service.setOpt" style="rounded=1;whiteSpace=wrap;html=1;strokeWidth=1.5;fillColor=none;strokeColor=#9673a6;" parent="1" vertex="1">
          <mxGeometry x="-20" y="1186" width="90" height="40" as="geometry" />
        </mxCell>
        <mxCell id="xYFo13c3qf6ceHfBsj0E-9" value="" style="endArrow=classic;html=1;rounded=0;strokeWidth=1.5;fillColor=#e1d5e7;strokeColor=#9673a6;entryX=0.5;entryY=0;entryDx=0;entryDy=0;exitX=0.5;exitY=1;exitDx=0;exitDy=0;" parent="1" edge="1">
          <mxGeometry width="50" height="50" relative="1" as="geometry">
            <mxPoint x="24.5" y="1141.5" as="sourcePoint" />
            <mxPoint x="24.5" y="1186.5" as="targetPoint" />
          </mxGeometry>
        </mxCell>
        <mxCell id="xYFo13c3qf6ceHfBsj0E-10" value="设置msg的CalleeServiceName为service的ServiceName" style="ellipse;shape=cloud;whiteSpace=wrap;html=1;fillColor=#e1d5e7;strokeColor=#9673a6;shadow=0;sketch=1;curveFitting=1;jiggle=2;" parent="1" vertex="1">
          <mxGeometry x="-35" y="1262" width="120" height="80" as="geometry" />
        </mxCell>
        <mxCell id="xYFo13c3qf6ceHfBsj0E-11" value="" style="endArrow=classic;html=1;rounded=0;strokeWidth=1.5;fillColor=#e1d5e7;strokeColor=#9673a6;entryX=0.5;entryY=0;entryDx=0;entryDy=0;exitX=0.5;exitY=1;exitDx=0;exitDy=0;" parent="1" edge="1">
          <mxGeometry width="50" height="50" relative="1" as="geometry">
            <mxPoint x="24.5" y="1226" as="sourcePoint" />
            <mxPoint x="24.5" y="1271" as="targetPoint" />
          </mxGeometry>
        </mxCell>
        <mxCell id="xYFo13c3qf6ceHfBsj0E-12" value="修改CalleeServiceName" style="rounded=0;whiteSpace=wrap;html=1;strokeWidth=1.5;fillColor=none;strokeColor=none;" parent="1" vertex="1">
          <mxGeometry x="21" y="947" width="109" height="40" as="geometry" />
        </mxCell>
        <mxCell id="xYFo13c3qf6ceHfBsj0E-13" value="serviceCfg.Name" style="ellipse;shape=cloud;whiteSpace=wrap;html=1;fillColor=#e1d5e7;strokeColor=#9673a6;sketch=1;curveFitting=1;jiggle=2;" parent="1" vertex="1">
          <mxGeometry x="-35" y="1376.25" width="120" height="80" as="geometry" />
        </mxCell>
        <mxCell id="xYFo13c3qf6ceHfBsj0E-14" value="" style="endArrow=classic;html=1;rounded=0;strokeWidth=1.5;fillColor=#e1d5e7;strokeColor=#9673a6;entryX=0.5;entryY=0;entryDx=0;entryDy=0;exitX=0.5;exitY=1;exitDx=0;exitDy=0;" parent="1" edge="1">
          <mxGeometry width="50" height="50" relative="1" as="geometry">
            <mxPoint x="24.5" y="1338" as="sourcePoint" />
            <mxPoint x="24.5" y="1383" as="targetPoint" />
          </mxGeometry>
        </mxCell>
        <mxCell id="xYFo13c3qf6ceHfBsj0E-15" value="" style="curved=1;endArrow=classic;html=1;rounded=0;strokeWidth=1.5;fontSize=12;fontColor=#1A1A1A;exitX=1;exitY=0;exitDx=0;exitDy=0;dashed=1;fillColor=#d80073;strokeColor=#A50040;entryX=0.061;entryY=1.039;entryDx=0;entryDy=0;entryPerimeter=0;" parent="1" target="oy9rxF2P4usleRckeEOI-13" edge="1">
          <mxGeometry width="50" height="50" relative="1" as="geometry">
            <mxPoint x="58" y="1393" as="sourcePoint" />
            <mxPoint x="190" y="1193" as="targetPoint" />
            <Array as="points">
              <mxPoint x="120" y="1320" />
            </Array>
          </mxGeometry>
        </mxCell>
        <mxCell id="LvwM35PkXQih2WpxM33S-1" value="handler" style="rounded=1;whiteSpace=wrap;html=1;strokeWidth=1.5;fillColor=none;strokeColor=#b85450;" parent="1" vertex="1">
          <mxGeometry x="807" y="1640" width="90" height="40" as="geometry" />
        </mxCell>
        <mxCell id="LvwM35PkXQih2WpxM33S-2" value="" style="endArrow=classic;html=1;rounded=0;strokeWidth=1.5;fillColor=#f8cecc;strokeColor=#b85450;exitX=0.5;exitY=1;exitDx=0;exitDy=0;" parent="1" edge="1">
          <mxGeometry width="50" height="50" relative="1" as="geometry">
            <mxPoint x="748" y="1659.5" as="sourcePoint" />
            <mxPoint x="788" y="1659.5" as="targetPoint" />
          </mxGeometry>
        </mxCell>
        <mxCell id="LvwM35PkXQih2WpxM33S-3" value="svc配置的timeout" style="rounded=1;whiteSpace=wrap;html=1;strokeWidth=1.5;fillColor=none;strokeColor=#9673a6;" parent="1" vertex="1">
          <mxGeometry x="960" y="1590" width="100" height="40" as="geometry" />
        </mxCell>
        <mxCell id="LvwM35PkXQih2WpxM33S-5" value="&lt;div style=&quot;background-color: rgb(255, 255, 255);&quot;&gt;&lt;pre style=&quot;&quot;&gt;&lt;font color=&quot;#ff3333&quot; face=&quot;Helvetica&quot;&gt;&lt;b&gt;超时机制&lt;/b&gt;&lt;/font&gt;&lt;/pre&gt;&lt;/div&gt;" style="rounded=0;whiteSpace=wrap;html=1;strokeWidth=1.5;fillColor=none;strokeColor=none;" parent="1" vertex="1">
          <mxGeometry x="870" y="1660" width="110" height="40" as="geometry" />
        </mxCell>
        <mxCell id="LvwM35PkXQih2WpxM33S-6" value="msg.RequestTimeout" style="rounded=1;whiteSpace=wrap;html=1;strokeWidth=1.5;fillColor=none;strokeColor=#9673a6;" parent="1" vertex="1">
          <mxGeometry x="958" y="1690" width="100" height="40" as="geometry" />
        </mxCell>
        <mxCell id="LvwM35PkXQih2WpxM33S-7" value="" style="shape=curlyBracket;whiteSpace=wrap;html=1;rounded=1;labelPosition=left;verticalLabelPosition=middle;align=right;verticalAlign=middle;strokeWidth=1.5;size=0.5;fillColor=#e1d5e7;strokeColor=#9673a6;" parent="1" vertex="1">
          <mxGeometry x="930" y="1610" width="20" height="100" as="geometry" />
        </mxCell>
        <mxCell id="LvwM35PkXQih2WpxM33S-8" value="" style="shape=curlyBracket;whiteSpace=wrap;html=1;rounded=1;labelPosition=left;verticalLabelPosition=middle;align=right;verticalAlign=middle;strokeWidth=1.5;size=0.5;fillColor=#e1d5e7;strokeColor=#9673a6;rotation=-181;" parent="1" vertex="1">
          <mxGeometry x="1076" y="1610" width="20" height="100" as="geometry" />
        </mxCell>
        <mxCell id="LvwM35PkXQih2WpxM33S-9" value="取最小值作为svc的处理时间ctx" style="rounded=1;whiteSpace=wrap;html=1;strokeWidth=1.5;fillColor=none;strokeColor=#9673a6;" parent="1" vertex="1">
          <mxGeometry x="1111" y="1640" width="100" height="40" as="geometry" />
        </mxCell>
        <mxCell id="LvwM35PkXQih2WpxM33S-10" value="&lt;div style=&quot;background-color: rgb(255, 255, 255);&quot;&gt;&lt;pre style=&quot;&quot;&gt;&lt;font face=&quot;Helvetica&quot;&gt;开启全链路超时&lt;/font&gt;&lt;/pre&gt;&lt;/div&gt;" style="rounded=0;whiteSpace=wrap;html=1;strokeWidth=1.5;fillColor=none;strokeColor=none;" parent="1" vertex="1">
          <mxGeometry x="958" y="1660" width="110" height="40" as="geometry" />
        </mxCell>
        <mxCell id="LvwM35PkXQih2WpxM33S-11" value="WithTimeout(ctx, clt配置的超时时间)" style="rounded=1;whiteSpace=wrap;html=1;strokeWidth=1.5;fillColor=none;strokeColor=#9673a6;" parent="1" vertex="1">
          <mxGeometry x="1300" y="1590" width="100" height="40" as="geometry" />
        </mxCell>
        <mxCell id="LvwM35PkXQih2WpxM33S-13" value="&lt;div style=&quot;background-color: rgb(255, 255, 255);&quot;&gt;&lt;pre style=&quot;&quot;&gt;&lt;font face=&quot;Helvetica&quot;&gt;rpc as client&lt;/font&gt;&lt;/pre&gt;&lt;/div&gt;" style="rounded=0;whiteSpace=wrap;html=1;strokeWidth=1.5;fillColor=none;strokeColor=none;" parent="1" vertex="1">
          <mxGeometry x="1192" y="1660" width="110" height="40" as="geometry" />
        </mxCell>
        <mxCell id="LvwM35PkXQih2WpxM33S-14" value="" style="shape=curlyBracket;whiteSpace=wrap;html=1;rounded=1;labelPosition=left;verticalLabelPosition=middle;align=right;verticalAlign=middle;strokeWidth=1.5;size=0.5;fillColor=#e1d5e7;strokeColor=#9673a6;" parent="1" vertex="1">
          <mxGeometry x="1265" y="1610" width="20" height="100" as="geometry" />
        </mxCell>
        <mxCell id="LvwM35PkXQih2WpxM33S-16" value="context.WithTimeout会取最小值。&lt;br&gt;ctx控制请求耗时" style="ellipse;shape=cloud;whiteSpace=wrap;html=1;fillColor=#e1d5e7;strokeColor=#9673a6;shadow=0;sketch=1;curveFitting=1;jiggle=2;" parent="1" vertex="1">
          <mxGeometry x="1405" y="1568" width="120" height="80" as="geometry" />
        </mxCell>
        <mxCell id="LvwM35PkXQih2WpxM33S-17" value="msg.WithRequest&lt;br&gt;Timeout(deadline.Sub&lt;br&gt;(time.Now()))" style="rounded=1;whiteSpace=wrap;html=1;strokeWidth=1.5;fillColor=none;strokeColor=#9673a6;" parent="1" vertex="1">
          <mxGeometry x="1300" y="1690" width="100" height="40" as="geometry" />
        </mxCell>
        <mxCell id="LvwM35PkXQih2WpxM33S-18" value="rpc带到下游" style="ellipse;shape=cloud;whiteSpace=wrap;html=1;fillColor=#e1d5e7;strokeColor=#9673a6;shadow=0;sketch=1;curveFitting=1;jiggle=2;" parent="1" vertex="1">
          <mxGeometry x="1405" y="1680" width="120" height="60" as="geometry" />
        </mxCell>
        <mxCell id="AZp7hlQ1LpKEbmgbOaEI-1" value="" style="endArrow=classic;html=1;rounded=0;strokeWidth=1.5;fillColor=#76608a;strokeColor=#432D57;exitX=0.5;exitY=1;exitDx=0;exitDy=0;entryX=0.5;entryY=0;entryDx=0;entryDy=0;" parent="1" target="AZp7hlQ1LpKEbmgbOaEI-2" edge="1">
          <mxGeometry width="50" height="50" relative="1" as="geometry">
            <mxPoint x="827" y="1680" as="sourcePoint" />
            <mxPoint x="827" y="1720" as="targetPoint" />
          </mxGeometry>
        </mxCell>
        <mxCell id="AZp7hlQ1LpKEbmgbOaEI-2" value="&lt;font color=&quot;#1a1a1a&quot;&gt;普通调用&lt;br&gt;err != nil&lt;br&gt;&lt;/font&gt;" style="rounded=1;whiteSpace=wrap;html=1;strokeWidth=1.5;fillColor=none;strokeColor=#432D57;fontColor=#ffffff;" parent="1" vertex="1">
          <mxGeometry x="754" y="1754" width="90" height="40" as="geometry" />
        </mxCell>
        <mxCell id="AZp7hlQ1LpKEbmgbOaEI-3" value="&lt;div style=&quot;background-color: rgb(255, 255, 255);&quot;&gt;&lt;pre style=&quot;&quot;&gt;&lt;font color=&quot;#ff3333&quot; face=&quot;Helvetica&quot;&gt;&lt;b&gt;错误码处理&lt;/b&gt;&lt;/font&gt;&lt;/pre&gt;&lt;/div&gt;" style="rounded=0;whiteSpace=wrap;html=1;strokeWidth=1.5;fillColor=none;strokeColor=none;" parent="1" vertex="1">
          <mxGeometry x="810" y="1682" width="90" height="40" as="geometry" />
        </mxCell>
        <mxCell id="AZp7hlQ1LpKEbmgbOaEI-4" value="&lt;font color=&quot;#1a1a1a&quot;&gt;err=ErrServerNo&lt;br&gt;Response&lt;br&gt;&lt;/font&gt;" style="rounded=1;whiteSpace=wrap;html=1;strokeWidth=1.5;fillColor=none;strokeColor=#432D57;fontColor=#ffffff;" parent="1" vertex="1">
          <mxGeometry x="875" y="1860" width="90" height="40" as="geometry" />
        </mxCell>
        <mxCell id="AZp7hlQ1LpKEbmgbOaEI-8" value="&lt;div style=&quot;background-color: rgb(255, 255, 255);&quot;&gt;&lt;pre style=&quot;&quot;&gt;&lt;font face=&quot;Helvetica&quot;&gt;请求处理handler返回err!=nil&lt;/font&gt;&lt;/pre&gt;&lt;/div&gt;" style="rounded=0;whiteSpace=wrap;html=1;strokeWidth=1.5;fillColor=none;strokeColor=none;" parent="1" vertex="1">
          <mxGeometry x="807" y="1710" width="90" height="40" as="geometry" />
        </mxCell>
        <mxCell id="AZp7hlQ1LpKEbmgbOaEI-9" value="" style="curved=1;endArrow=classic;html=1;rounded=0;strokeWidth=1.5;fontSize=12;fontColor=#1A1A1A;exitX=0.75;exitY=0;exitDx=0;exitDy=0;fillColor=#76608a;strokeColor=#432D57;" parent="1" source="AZp7hlQ1LpKEbmgbOaEI-3" edge="1">
          <mxGeometry width="50" height="50" relative="1" as="geometry">
            <mxPoint x="585" y="1650" as="sourcePoint" />
            <mxPoint x="920" y="1770" as="targetPoint" />
            <Array as="points">
              <mxPoint x="900" y="1700" />
              <mxPoint x="920" y="1740" />
            </Array>
          </mxGeometry>
        </mxCell>
        <mxCell id="AZp7hlQ1LpKEbmgbOaEI-10" value="" style="curved=1;endArrow=classic;html=1;rounded=0;strokeWidth=1.5;fontSize=12;fontColor=#1A1A1A;exitX=0.75;exitY=0;exitDx=0;exitDy=0;fillColor=#76608a;strokeColor=#432D57;entryX=0;entryY=0.5;entryDx=0;entryDy=0;dashed=1;" parent="1" target="AZp7hlQ1LpKEbmgbOaEI-4" edge="1">
          <mxGeometry width="50" height="50" relative="1" as="geometry">
            <mxPoint x="797" y="1794" as="sourcePoint" />
            <mxPoint x="833" y="1952" as="targetPoint" />
            <Array as="points">
              <mxPoint x="800" y="1820" />
              <mxPoint x="820" y="1850" />
              <mxPoint x="840" y="1870" />
            </Array>
          </mxGeometry>
        </mxCell>
        <mxCell id="AZp7hlQ1LpKEbmgbOaEI-11" value="&lt;div style=&quot;background-color: rgb(255, 255, 255);&quot;&gt;&lt;pre style=&quot;&quot;&gt;&lt;font face=&quot;Helvetica&quot;&gt;全链路超时&lt;/font&gt;&lt;/pre&gt;&lt;/div&gt;" style="rounded=0;whiteSpace=wrap;html=1;strokeWidth=1.5;fillColor=none;strokeColor=none;" parent="1" vertex="1">
          <mxGeometry x="780" y="1810" width="90" height="40" as="geometry" />
        </mxCell>
        <mxCell id="AZp7hlQ1LpKEbmgbOaEI-12" value="&lt;font color=&quot;#1a1a1a&quot;&gt;单向调用&lt;br&gt;&lt;/font&gt;" style="rounded=1;whiteSpace=wrap;html=1;strokeWidth=1.5;fillColor=none;strokeColor=#432D57;fontColor=#ffffff;" parent="1" vertex="1">
          <mxGeometry x="875" y="1770" width="90" height="40" as="geometry" />
        </mxCell>
        <mxCell id="AZp7hlQ1LpKEbmgbOaEI-13" value="" style="endArrow=classic;html=1;rounded=0;strokeWidth=1.5;fillColor=#76608a;strokeColor=#432D57;exitX=0.5;exitY=1;exitDx=0;exitDy=0;" parent="1" edge="1">
          <mxGeometry width="50" height="50" relative="1" as="geometry">
            <mxPoint x="920" y="1816" as="sourcePoint" />
            <mxPoint x="920" y="1856" as="targetPoint" />
          </mxGeometry>
        </mxCell>
        <mxCell id="AZp7hlQ1LpKEbmgbOaEI-16" value="" style="shape=curlyBracket;whiteSpace=wrap;html=1;rounded=1;labelPosition=left;verticalLabelPosition=middle;align=right;verticalAlign=middle;strokeWidth=1.5;size=0.5;fillColor=#76608a;strokeColor=#432D57;rotation=-181;fontColor=#ffffff;" parent="1" vertex="1">
          <mxGeometry x="730" y="1723" width="20" height="100" as="geometry" />
        </mxCell>
        <mxCell id="AZp7hlQ1LpKEbmgbOaEI-17" value="&lt;font color=&quot;#1a1a1a&quot;&gt;框架错误&lt;br&gt;rsp.Ret&lt;br&gt;&lt;/font&gt;" style="rounded=1;whiteSpace=wrap;html=1;strokeWidth=1.5;fillColor=none;strokeColor=#432D57;fontColor=#ffffff;" parent="1" vertex="1">
          <mxGeometry x="636" y="1702" width="90" height="40" as="geometry" />
        </mxCell>
        <mxCell id="AZp7hlQ1LpKEbmgbOaEI-18" value="&lt;font color=&quot;#1a1a1a&quot;&gt;框架错误&lt;br&gt;rsp.FuncRet&lt;br&gt;&lt;/font&gt;" style="rounded=1;whiteSpace=wrap;html=1;strokeWidth=1.5;fillColor=none;strokeColor=#432D57;fontColor=#ffffff;" parent="1" vertex="1">
          <mxGeometry x="640" y="1803" width="90" height="40" as="geometry" />
        </mxCell>
        <mxCell id="AZp7hlQ1LpKEbmgbOaEI-19" value="" style="shape=flexArrow;endArrow=classic;html=1;rounded=0;endWidth=12;endSize=4.67;fillColor=none;strokeColor=#432D57;strokeWidth=1.5;" parent="1" edge="1">
          <mxGeometry width="50" height="50" relative="1" as="geometry">
            <mxPoint x="618" y="1772.5" as="sourcePoint" />
            <mxPoint x="568" y="1772.5" as="targetPoint" />
          </mxGeometry>
        </mxCell>
        <mxCell id="AZp7hlQ1LpKEbmgbOaEI-20" value="&lt;font color=&quot;#1a1a1a&quot;&gt;ResponseProtocol&lt;br&gt;编码&lt;br&gt;&lt;/font&gt;" style="rounded=1;whiteSpace=wrap;html=1;strokeWidth=1.5;fillColor=none;strokeColor=#432D57;fontColor=#ffffff;" parent="1" vertex="1">
          <mxGeometry x="464" y="1750" width="90" height="40" as="geometry" />
        </mxCell>
        <mxCell id="AZp7hlQ1LpKEbmgbOaEI-21" value="&lt;font color=&quot;#1a1a1a&quot;&gt;无回包&lt;br&gt;&lt;/font&gt;" style="rounded=1;whiteSpace=wrap;html=1;strokeWidth=1.5;fillColor=none;strokeColor=#432D57;fontColor=#ffffff;" parent="1" vertex="1">
          <mxGeometry x="875" y="1959" width="90" height="40" as="geometry" />
        </mxCell>
        <mxCell id="AZp7hlQ1LpKEbmgbOaEI-22" value="" style="endArrow=classic;html=1;rounded=0;strokeWidth=1.5;fillColor=#76608a;strokeColor=#432D57;exitX=0.5;exitY=1;exitDx=0;exitDy=0;" parent="1" edge="1">
          <mxGeometry width="50" height="50" relative="1" as="geometry">
            <mxPoint x="919.5" y="1910" as="sourcePoint" />
            <mxPoint x="919.5" y="1950" as="targetPoint" />
          </mxGeometry>
        </mxCell>
        <mxCell id="AZp7hlQ1LpKEbmgbOaEI-23" value="&lt;font color=&quot;#1a1a1a&quot;&gt;ClientCodec&lt;br&gt;Decode&lt;br&gt;&lt;/font&gt;" style="rounded=1;whiteSpace=wrap;html=1;strokeWidth=1.5;fillColor=none;strokeColor=#6D1F00;fontColor=#ffffff;" parent="1" vertex="1">
          <mxGeometry x="300" y="1750" width="90" height="40" as="geometry" />
        </mxCell>
        <mxCell id="AZp7hlQ1LpKEbmgbOaEI-24" value="" style="endArrow=classic;html=1;rounded=0;strokeWidth=1.5;fillColor=#a0522d;strokeColor=#6D1F00;exitX=0.5;exitY=1;exitDx=0;exitDy=0;dashed=1;" parent="1" edge="1">
          <mxGeometry width="50" height="50" relative="1" as="geometry">
            <mxPoint x="409" y="1770" as="sourcePoint" />
            <mxPoint x="449" y="1770" as="targetPoint" />
          </mxGeometry>
        </mxCell>
        <mxCell id="AZp7hlQ1LpKEbmgbOaEI-25" value="&lt;font color=&quot;#1a1a1a&quot;&gt;RoundTrip&lt;br&gt;&lt;/font&gt;" style="rounded=1;whiteSpace=wrap;html=1;strokeWidth=1.5;fillColor=none;strokeColor=#6D1F00;fontColor=#ffffff;" parent="1" vertex="1">
          <mxGeometry x="135" y="1750" width="90" height="40" as="geometry" />
        </mxCell>
        <mxCell id="AZp7hlQ1LpKEbmgbOaEI-26" value="" style="endArrow=classic;html=1;rounded=0;strokeWidth=1.5;fillColor=#a0522d;strokeColor=#6D1F00;exitX=0.5;exitY=1;exitDx=0;exitDy=0;" parent="1" edge="1">
          <mxGeometry width="50" height="50" relative="1" as="geometry">
            <mxPoint x="245" y="1770" as="sourcePoint" />
            <mxPoint x="285" y="1770" as="targetPoint" />
          </mxGeometry>
        </mxCell>
        <mxCell id="AZp7hlQ1LpKEbmgbOaEI-27" value="&lt;font color=&quot;#1a1a1a&quot;&gt;updateMsg&lt;br&gt;&lt;/font&gt;" style="rounded=1;whiteSpace=wrap;html=1;strokeWidth=1.5;fillColor=none;strokeColor=#6D1F00;fontColor=#ffffff;" parent="1" vertex="1">
          <mxGeometry x="467" y="1840" width="90" height="40" as="geometry" />
        </mxCell>
        <mxCell id="AZp7hlQ1LpKEbmgbOaEI-28" value="" style="endArrow=classic;html=1;rounded=0;strokeWidth=1.5;fillColor=#a0522d;strokeColor=#6D1F00;entryX=0.5;entryY=-0.15;entryDx=0;entryDy=0;entryPerimeter=0;" parent="1" edge="1">
          <mxGeometry width="50" height="50" relative="1" as="geometry">
            <mxPoint x="512" y="1799" as="sourcePoint" />
            <mxPoint x="512" y="1833" as="targetPoint" />
          </mxGeometry>
        </mxCell>
        <mxCell id="AZp7hlQ1LpKEbmgbOaEI-29" value="&lt;font color=&quot;#1a1a1a&quot;&gt;msg.WithClientRspErr&lt;br&gt;&lt;/font&gt;" style="rounded=1;whiteSpace=wrap;html=1;strokeWidth=1.5;fillColor=none;strokeColor=#6D1F00;fontColor=#ffffff;" parent="1" vertex="1">
          <mxGeometry x="467" y="1930" width="90" height="40" as="geometry" />
        </mxCell>
        <mxCell id="AZp7hlQ1LpKEbmgbOaEI-30" value="" style="endArrow=classic;html=1;rounded=0;strokeWidth=1.5;fillColor=#a0522d;strokeColor=#6D1F00;entryX=0.5;entryY=-0.15;entryDx=0;entryDy=0;entryPerimeter=0;" parent="1" edge="1">
          <mxGeometry width="50" height="50" relative="1" as="geometry">
            <mxPoint x="511.5" y="1890" as="sourcePoint" />
            <mxPoint x="511.5" y="1924" as="targetPoint" />
          </mxGeometry>
        </mxCell>
        <mxCell id="AZp7hlQ1LpKEbmgbOaEI-31" value="" style="shape=curlyBracket;whiteSpace=wrap;html=1;rounded=1;labelPosition=left;verticalLabelPosition=middle;align=right;verticalAlign=middle;strokeWidth=1.5;size=0.5;fillColor=#a0522d;strokeColor=#6D1F00;fontColor=#ffffff;" parent="1" vertex="1">
          <mxGeometry x="580" y="1900" width="20" height="100" as="geometry" />
        </mxCell>
        <mxCell id="AZp7hlQ1LpKEbmgbOaEI-32" value="&lt;font color=&quot;#1a1a1a&quot;&gt;rsp.Ret转换为框架错误&lt;br&gt;&lt;/font&gt;" style="rounded=1;whiteSpace=wrap;html=1;strokeWidth=1.5;fillColor=none;strokeColor=#6D1F00;fontColor=#ffffff;" parent="1" vertex="1">
          <mxGeometry x="620" y="1880" width="90" height="40" as="geometry" />
        </mxCell>
        <mxCell id="AZp7hlQ1LpKEbmgbOaEI-33" value="&lt;font color=&quot;#1a1a1a&quot;&gt;rsp.FuncRet转换为业务错误&lt;br&gt;&lt;/font&gt;" style="rounded=1;whiteSpace=wrap;html=1;strokeWidth=1.5;fillColor=none;strokeColor=#6D1F00;fontColor=#ffffff;" parent="1" vertex="1">
          <mxGeometry x="622" y="1980" width="90" height="40" as="geometry" />
        </mxCell>
        <mxCell id="AZp7hlQ1LpKEbmgbOaEI-34" value="&lt;font color=&quot;#1a1a1a&quot;&gt;prepareRequestBuf&lt;br&gt;&lt;/font&gt;" style="rounded=1;whiteSpace=wrap;html=1;strokeWidth=1.5;fillColor=none;strokeColor=#6D1F00;fontColor=#ffffff;" parent="1" vertex="1">
          <mxGeometry x="-24" y="1751" width="90" height="40" as="geometry" />
        </mxCell>
        <mxCell id="AZp7hlQ1LpKEbmgbOaEI-35" value="" style="endArrow=classic;html=1;rounded=0;strokeWidth=1.5;fillColor=#a0522d;strokeColor=#6D1F00;exitX=0.5;exitY=1;exitDx=0;exitDy=0;" parent="1" edge="1">
          <mxGeometry width="50" height="50" relative="1" as="geometry">
            <mxPoint x="80" y="1769.5" as="sourcePoint" />
            <mxPoint x="120" y="1769.5" as="targetPoint" />
          </mxGeometry>
        </mxCell>
        <mxCell id="AZp7hlQ1LpKEbmgbOaEI-36" value="&lt;font color=&quot;#1a1a1a&quot;&gt;客户端Invoke&lt;br&gt;&lt;/font&gt;" style="rounded=1;whiteSpace=wrap;html=1;strokeWidth=1.5;fillColor=none;strokeColor=#6D1F00;fontColor=#ffffff;" parent="1" vertex="1">
          <mxGeometry x="-190" y="1751" width="90" height="40" as="geometry" />
        </mxCell>
        <mxCell id="AZp7hlQ1LpKEbmgbOaEI-37" value="" style="endArrow=classic;html=1;rounded=0;strokeWidth=1.5;fillColor=#a0522d;strokeColor=#6D1F00;exitX=0.5;exitY=1;exitDx=0;exitDy=0;dashed=1;" parent="1" edge="1">
          <mxGeometry width="50" height="50" relative="1" as="geometry">
            <mxPoint x="-84" y="1770.5" as="sourcePoint" />
            <mxPoint x="-44" y="1770.5" as="targetPoint" />
          </mxGeometry>
        </mxCell>
        <mxCell id="AZp7hlQ1LpKEbmgbOaEI-38" value="&lt;div style=&quot;background-color: rgb(255, 255, 255);&quot;&gt;&lt;pre style=&quot;&quot;&gt;&lt;font face=&quot;Helvetica&quot;&gt;trpc协议解码&lt;/font&gt;&lt;/pre&gt;&lt;/div&gt;" style="rounded=0;whiteSpace=wrap;html=1;strokeWidth=1.5;fillColor=none;strokeColor=none;" parent="1" vertex="1">
          <mxGeometry x="381" y="1723" width="90" height="40" as="geometry" />
        </mxCell>
        <mxCell id="AZp7hlQ1LpKEbmgbOaEI-39" value="&lt;font color=&quot;#1a1a1a&quot;&gt;processResponseBuf&lt;br&gt;&lt;/font&gt;" style="rounded=1;whiteSpace=wrap;html=1;strokeWidth=1.5;fillColor=none;strokeColor=#6D1F00;fontColor=#ffffff;" parent="1" vertex="1">
          <mxGeometry x="-24" y="1860" width="90" height="40" as="geometry" />
        </mxCell>
        <mxCell id="AZp7hlQ1LpKEbmgbOaEI-40" value="" style="curved=1;endArrow=classic;html=1;rounded=0;strokeWidth=1.5;fontSize=12;fontColor=#1A1A1A;exitX=0.75;exitY=0;exitDx=0;exitDy=0;fillColor=#a0522d;strokeColor=#6D1F00;entryX=1;entryY=0.5;entryDx=0;entryDy=0;" parent="1" target="AZp7hlQ1LpKEbmgbOaEI-39" edge="1">
          <mxGeometry width="50" height="50" relative="1" as="geometry">
            <mxPoint x="343" y="1791" as="sourcePoint" />
            <mxPoint x="385" y="1879" as="targetPoint" />
            <Array as="points">
              <mxPoint x="330" y="1809" />
              <mxPoint x="210" y="1860" />
            </Array>
          </mxGeometry>
        </mxCell>
        <mxCell id="AZp7hlQ1LpKEbmgbOaEI-41" value="&lt;div style=&quot;background-color: rgb(255, 255, 255);&quot;&gt;&lt;pre style=&quot;&quot;&gt;&lt;font face=&quot;Helvetica&quot;&gt;Decode细节&lt;/font&gt;&lt;/pre&gt;&lt;/div&gt;" style="rounded=0;whiteSpace=wrap;html=1;strokeWidth=1.5;fillColor=none;strokeColor=none;" parent="1" vertex="1">
          <mxGeometry x="382" y="1770" width="90" height="40" as="geometry" />
        </mxCell>
        <mxCell id="AZp7hlQ1LpKEbmgbOaEI-42" value="" style="curved=1;endArrow=classic;html=1;rounded=0;strokeWidth=1.5;fontSize=12;fontColor=#1A1A1A;exitX=0.75;exitY=0;exitDx=0;exitDy=0;fillColor=#a0522d;strokeColor=#6D1F00;entryX=1;entryY=0.75;entryDx=0;entryDy=0;dashed=1;" parent="1" target="AZp7hlQ1LpKEbmgbOaEI-39" edge="1">
          <mxGeometry width="50" height="50" relative="1" as="geometry">
            <mxPoint x="467" y="1955.5" as="sourcePoint" />
            <mxPoint x="190" y="2044.5" as="targetPoint" />
            <Array as="points">
              <mxPoint x="390" y="1970" />
              <mxPoint x="220" y="1950" />
            </Array>
          </mxGeometry>
        </mxCell>
        <mxCell id="AZp7hlQ1LpKEbmgbOaEI-43" value="&lt;font color=&quot;#1a1a1a&quot;&gt;返回msg.ClientRspErr&lt;br&gt;&lt;/font&gt;" style="rounded=1;whiteSpace=wrap;html=1;strokeWidth=1.5;fillColor=none;strokeColor=#6D1F00;fontColor=#ffffff;" parent="1" vertex="1">
          <mxGeometry x="-20" y="1950" width="90" height="40" as="geometry" />
        </mxCell>
        <mxCell id="AZp7hlQ1LpKEbmgbOaEI-44" value="" style="endArrow=classic;html=1;rounded=0;strokeWidth=1.5;fillColor=#a0522d;strokeColor=#6D1F00;exitX=0.5;exitY=1;exitDx=0;exitDy=0;" parent="1" edge="1">
          <mxGeometry width="50" height="50" relative="1" as="geometry">
            <mxPoint x="20" y="1910" as="sourcePoint" />
            <mxPoint x="20" y="1940" as="targetPoint" />
          </mxGeometry>
        </mxCell>
        <mxCell id="AZp7hlQ1LpKEbmgbOaEI-45" value="&lt;div style=&quot;background-color: rgb(255, 255, 255);&quot;&gt;&lt;pre style=&quot;&quot;&gt;&lt;font face=&quot;Helvetica&quot;&gt;ClientRspErr != nil&lt;/font&gt;&lt;/pre&gt;&lt;/div&gt;" style="rounded=0;whiteSpace=wrap;html=1;strokeWidth=1.5;fillColor=none;strokeColor=none;" parent="1" vertex="1">
          <mxGeometry x="35" y="1900" width="90" height="40" as="geometry" />
        </mxCell>
        <mxCell id="AZp7hlQ1LpKEbmgbOaEI-46" value="&lt;font color=&quot;#1a1a1a&quot;&gt;callFunc&lt;br&gt;&lt;/font&gt;" style="rounded=1;whiteSpace=wrap;html=1;strokeWidth=1.5;fillColor=none;strokeColor=#6D1F00;fontColor=#ffffff;" parent="1" vertex="1">
          <mxGeometry x="-190" y="1919" width="90" height="40" as="geometry" />
        </mxCell>
        <mxCell id="AZp7hlQ1LpKEbmgbOaEI-47" value="" style="curved=1;endArrow=classic;html=1;rounded=0;strokeWidth=1.5;fontSize=12;fontColor=#1A1A1A;exitX=0.75;exitY=0;exitDx=0;exitDy=0;fillColor=#a0522d;strokeColor=#6D1F00;entryX=0.5;entryY=1;entryDx=0;entryDy=0;" parent="1" target="AZp7hlQ1LpKEbmgbOaEI-46" edge="1">
          <mxGeometry width="50" height="50" relative="1" as="geometry">
            <mxPoint x="-20" y="1970" as="sourcePoint" />
            <mxPoint x="-297" y="2059" as="targetPoint" />
            <Array as="points">
              <mxPoint x="-40" y="1988" />
              <mxPoint x="-110" y="1990" />
            </Array>
          </mxGeometry>
        </mxCell>
        <mxCell id="AZp7hlQ1LpKEbmgbOaEI-48" value="&lt;div style=&quot;background-color: rgb(255, 255, 255);&quot;&gt;&lt;pre style=&quot;&quot;&gt;&lt;font face=&quot;Helvetica&quot;&gt;return&lt;/font&gt;&lt;/pre&gt;&lt;/div&gt;" style="rounded=0;whiteSpace=wrap;html=1;strokeWidth=1.5;fillColor=none;strokeColor=none;" parent="1" vertex="1">
          <mxGeometry x="-125" y="1982" width="90" height="40" as="geometry" />
        </mxCell>
        <mxCell id="AZp7hlQ1LpKEbmgbOaEI-49" value="" style="curved=1;endArrow=classic;html=1;rounded=0;strokeWidth=1.5;fontSize=12;fontColor=#1A1A1A;exitX=1;exitY=0;exitDx=0;exitDy=0;fillColor=#a0522d;strokeColor=#6D1F00;entryX=0.25;entryY=1;entryDx=0;entryDy=0;" parent="1" source="AZp7hlQ1LpKEbmgbOaEI-46" target="AZp7hlQ1LpKEbmgbOaEI-34" edge="1">
          <mxGeometry width="50" height="50" relative="1" as="geometry">
            <mxPoint x="-10" y="1980" as="sourcePoint" />
            <mxPoint x="-135" y="1969" as="targetPoint" />
            <Array as="points">
              <mxPoint x="-40" y="1870" />
            </Array>
          </mxGeometry>
        </mxCell>
        <mxCell id="AZp7hlQ1LpKEbmgbOaEI-50" value="&lt;font color=&quot;#1a1a1a&quot;&gt;责任链Filter&lt;br&gt;&lt;/font&gt;" style="rounded=1;whiteSpace=wrap;html=1;strokeWidth=1.5;fillColor=none;strokeColor=#6D1F00;fontColor=#ffffff;" parent="1" vertex="1">
          <mxGeometry x="-190" y="1835" width="90" height="40" as="geometry" />
        </mxCell>
        <mxCell id="AZp7hlQ1LpKEbmgbOaEI-51" value="" style="endArrow=classic;html=1;rounded=0;strokeWidth=1.5;fillColor=#a0522d;strokeColor=#6D1F00;exitX=0.25;exitY=1;exitDx=0;exitDy=0;entryX=0.25;entryY=0;entryDx=0;entryDy=0;" parent="1" source="AZp7hlQ1LpKEbmgbOaEI-36" target="AZp7hlQ1LpKEbmgbOaEI-50" edge="1">
          <mxGeometry width="50" height="50" relative="1" as="geometry">
            <mxPoint x="-170" y="1803" as="sourcePoint" />
            <mxPoint x="-130" y="1803" as="targetPoint" />
          </mxGeometry>
        </mxCell>
        <mxCell id="AZp7hlQ1LpKEbmgbOaEI-52" value="" style="endArrow=classic;html=1;rounded=0;strokeWidth=1.5;fillColor=#a0522d;strokeColor=#6D1F00;exitX=0.25;exitY=1;exitDx=0;exitDy=0;entryX=0.25;entryY=0;entryDx=0;entryDy=0;" parent="1" edge="1">
          <mxGeometry width="50" height="50" relative="1" as="geometry">
            <mxPoint x="-167" y="1875" as="sourcePoint" />
            <mxPoint x="-167" y="1919" as="targetPoint" />
          </mxGeometry>
        </mxCell>
        <mxCell id="AZp7hlQ1LpKEbmgbOaEI-53" value="" style="endArrow=classic;html=1;rounded=0;strokeWidth=1.5;fillColor=#a0522d;strokeColor=#6D1F00;exitX=0.75;exitY=0;exitDx=0;exitDy=0;entryX=0.75;entryY=1;entryDx=0;entryDy=0;" parent="1" source="AZp7hlQ1LpKEbmgbOaEI-50" target="AZp7hlQ1LpKEbmgbOaEI-36" edge="1">
          <mxGeometry width="50" height="50" relative="1" as="geometry">
            <mxPoint x="-157" y="1801" as="sourcePoint" />
            <mxPoint x="-157" y="1845" as="targetPoint" />
          </mxGeometry>
        </mxCell>
        <mxCell id="AZp7hlQ1LpKEbmgbOaEI-54" value="" style="endArrow=classic;html=1;rounded=0;strokeWidth=1.5;fillColor=#a0522d;strokeColor=#6D1F00;exitX=0.75;exitY=0;exitDx=0;exitDy=0;entryX=0.75;entryY=1;entryDx=0;entryDy=0;" parent="1" edge="1">
          <mxGeometry width="50" height="50" relative="1" as="geometry">
            <mxPoint x="-122" y="1919" as="sourcePoint" />
            <mxPoint x="-122" y="1875" as="targetPoint" />
          </mxGeometry>
        </mxCell>
        <mxCell id="OAe6Ylzoa2kv1lia_lBi-1" value="http客户端" style="rounded=1;whiteSpace=wrap;html=1;strokeWidth=1.5;fillColor=none;strokeColor=#9673a6;" parent="1" vertex="1">
          <mxGeometry y="2120" width="90" height="40" as="geometry" />
        </mxCell>
        <mxCell id="OAe6Ylzoa2kv1lia_lBi-2" value="RoundTrip" style="rounded=1;whiteSpace=wrap;html=1;strokeWidth=1.5;fillColor=none;strokeColor=#9673a6;" parent="1" vertex="1">
          <mxGeometry x="150" y="2120" width="90" height="40" as="geometry" />
        </mxCell>
        <mxCell id="OAe6Ylzoa2kv1lia_lBi-3" value="" style="endArrow=classic;html=1;rounded=0;strokeWidth=1.5;fillColor=#e1d5e7;strokeColor=#9673a6;" parent="1" edge="1">
          <mxGeometry width="50" height="50" relative="1" as="geometry">
            <mxPoint x="100" y="2139.5" as="sourcePoint" />
            <mxPoint x="140" y="2140" as="targetPoint" />
          </mxGeometry>
        </mxCell>
        <mxCell id="OAe6Ylzoa2kv1lia_lBi-4" value="http服务端" style="rounded=1;whiteSpace=wrap;html=1;strokeWidth=1.5;fillColor=none;strokeColor=#9673a6;" parent="1" vertex="1">
          <mxGeometry x="300" y="2120" width="90" height="40" as="geometry" />
        </mxCell>
        <mxCell id="OAe6Ylzoa2kv1lia_lBi-5" value="" style="endArrow=classic;html=1;rounded=0;strokeWidth=1.5;fillColor=#e1d5e7;strokeColor=#9673a6;" parent="1" edge="1">
          <mxGeometry width="50" height="50" relative="1" as="geometry">
            <mxPoint x="250" y="2139.5" as="sourcePoint" />
            <mxPoint x="290" y="2140" as="targetPoint" />
          </mxGeometry>
        </mxCell>
        <mxCell id="OAe6Ylzoa2kv1lia_lBi-6" value="" style="endArrow=classic;html=1;rounded=0;strokeWidth=1.5;fillColor=#e1d5e7;strokeColor=#9673a6;dashed=1;" parent="1" edge="1">
          <mxGeometry width="50" height="50" relative="1" as="geometry">
            <mxPoint x="194.5" y="2167" as="sourcePoint" />
            <mxPoint x="194.5" y="2207" as="targetPoint" />
          </mxGeometry>
        </mxCell>
        <mxCell id="OAe6Ylzoa2kv1lia_lBi-7" value="getRequest" style="rounded=1;whiteSpace=wrap;html=1;strokeWidth=1.5;fillColor=none;strokeColor=#9673a6;" parent="1" vertex="1">
          <mxGeometry x="150" y="2215" width="90" height="40" as="geometry" />
        </mxCell>
        <mxCell id="OAe6Ylzoa2kv1lia_lBi-8" value="设置请求头" style="rounded=1;whiteSpace=wrap;html=1;strokeWidth=1.5;fillColor=none;strokeColor=#9673a6;" parent="1" vertex="1">
          <mxGeometry x="150" y="2317" width="90" height="40" as="geometry" />
        </mxCell>
        <mxCell id="OAe6Ylzoa2kv1lia_lBi-9" value="" style="endArrow=classic;html=1;rounded=0;strokeWidth=1.5;fillColor=#e1d5e7;strokeColor=#9673a6;dashed=1;" parent="1" edge="1">
          <mxGeometry width="50" height="50" relative="1" as="geometry">
            <mxPoint x="194.5" y="2265" as="sourcePoint" />
            <mxPoint x="194.5" y="2305" as="targetPoint" />
          </mxGeometry>
        </mxCell>
        <mxCell id="OAe6Ylzoa2kv1lia_lBi-11" value="" style="shape=curlyBracket;whiteSpace=wrap;html=1;rounded=1;labelPosition=left;verticalLabelPosition=middle;align=right;verticalAlign=middle;strokeWidth=1.5;size=0.5;fillColor=#e1d5e7;strokeColor=#9673a6;" parent="1" vertex="1">
          <mxGeometry x="250" y="2290" width="20" height="160" as="geometry" />
        </mxCell>
        <mxCell id="OAe6Ylzoa2kv1lia_lBi-12" value="&lt;font color=&quot;#1a1a1a&quot;&gt;TrpcCaller&lt;/font&gt;" style="rounded=1;whiteSpace=wrap;html=1;strokeWidth=1.5;fillColor=#d0cee2;strokeColor=#56517e;sketch=1;curveFitting=1;jiggle=2;" parent="1" vertex="1">
          <mxGeometry x="280" y="2277" width="90" height="17" as="geometry" />
        </mxCell>
        <mxCell id="OAe6Ylzoa2kv1lia_lBi-13" value="TrpcCallee" style="rounded=1;whiteSpace=wrap;html=1;strokeWidth=1.5;fillColor=#d0cee2;strokeColor=#56517e;sketch=1;curveFitting=1;jiggle=2;" parent="1" vertex="1">
          <mxGeometry x="280" y="2310" width="90" height="14" as="geometry" />
        </mxCell>
        <mxCell id="OAe6Ylzoa2kv1lia_lBi-14" value="TrpcTimeout" style="rounded=1;whiteSpace=wrap;html=1;strokeWidth=1.5;fillColor=#d0cee2;strokeColor=#56517e;sketch=1;curveFitting=1;jiggle=2;" parent="1" vertex="1">
          <mxGeometry x="280" y="2338" width="90" height="22" as="geometry" />
        </mxCell>
        <mxCell id="OAe6Ylzoa2kv1lia_lBi-15" value="TrpcTransInfo" style="rounded=1;whiteSpace=wrap;html=1;strokeWidth=1.5;fillColor=#d0cee2;strokeColor=#56517e;sketch=1;curveFitting=1;jiggle=2;" parent="1" vertex="1">
          <mxGeometry x="280" y="2372" width="90" height="22" as="geometry" />
        </mxCell>
        <mxCell id="OAe6Ylzoa2kv1lia_lBi-16" value="Decode" style="rounded=1;whiteSpace=wrap;html=1;strokeWidth=1.5;fillColor=none;strokeColor=#9673a6;" parent="1" vertex="1">
          <mxGeometry x="448" y="2120" width="90" height="40" as="geometry" />
        </mxCell>
        <mxCell id="OAe6Ylzoa2kv1lia_lBi-17" value="" style="endArrow=classic;html=1;rounded=0;strokeWidth=1.5;fillColor=#e1d5e7;strokeColor=#9673a6;" parent="1" edge="1">
          <mxGeometry width="50" height="50" relative="1" as="geometry">
            <mxPoint x="400" y="2140" as="sourcePoint" />
            <mxPoint x="440" y="2140.5" as="targetPoint" />
          </mxGeometry>
        </mxCell>
        <mxCell id="OAe6Ylzoa2kv1lia_lBi-18" value="setReqHeader" style="rounded=1;whiteSpace=wrap;html=1;strokeWidth=1.5;fillColor=none;strokeColor=#9673a6;" parent="1" vertex="1">
          <mxGeometry x="448" y="2210" width="90" height="40" as="geometry" />
        </mxCell>
        <mxCell id="OAe6Ylzoa2kv1lia_lBi-19" value="" style="endArrow=classic;html=1;rounded=0;strokeWidth=1.5;fillColor=#e1d5e7;strokeColor=#9673a6;dashed=1;" parent="1" edge="1">
          <mxGeometry width="50" height="50" relative="1" as="geometry">
            <mxPoint x="492.5" y="2164" as="sourcePoint" />
            <mxPoint x="492.5" y="2204" as="targetPoint" />
          </mxGeometry>
        </mxCell>
        <mxCell id="OAe6Ylzoa2kv1lia_lBi-20" value="trpcReq.Timeout" style="rounded=1;whiteSpace=wrap;html=1;strokeWidth=1.5;fillColor=#f8cecc;strokeColor=#b85450;sketch=1;curveFitting=1;jiggle=2;" parent="1" vertex="1">
          <mxGeometry x="444" y="2336" width="90" height="22" as="geometry" />
        </mxCell>
        <mxCell id="OAe6Ylzoa2kv1lia_lBi-21" value="trpcReq.Caller" style="rounded=1;whiteSpace=wrap;html=1;strokeWidth=1.5;fillColor=#f8cecc;strokeColor=#b85450;sketch=1;curveFitting=1;jiggle=2;" parent="1" vertex="1">
          <mxGeometry x="444" y="2277" width="90" height="17" as="geometry" />
        </mxCell>
        <mxCell id="OAe6Ylzoa2kv1lia_lBi-22" value="trpcReq.Callee" style="rounded=1;whiteSpace=wrap;html=1;strokeWidth=1.5;fillColor=#f8cecc;strokeColor=#b85450;sketch=1;curveFitting=1;jiggle=2;" parent="1" vertex="1">
          <mxGeometry x="444" y="2305" width="90" height="19" as="geometry" />
        </mxCell>
        <mxCell id="OAe6Ylzoa2kv1lia_lBi-23" value="trpc.ReqTransInfo" style="rounded=1;whiteSpace=wrap;html=1;strokeWidth=1.5;fillColor=#f8cecc;strokeColor=#b85450;sketch=1;curveFitting=1;jiggle=2;" parent="1" vertex="1">
          <mxGeometry x="444" y="2372" width="90" height="22" as="geometry" />
        </mxCell>
        <mxCell id="OAe6Ylzoa2kv1lia_lBi-24" value="" style="shape=curlyBracket;whiteSpace=wrap;html=1;rounded=1;labelPosition=left;verticalLabelPosition=middle;align=right;verticalAlign=middle;strokeWidth=1.5;size=0.5;fillColor=#f8cecc;strokeColor=#b85450;rotation=-180;" parent="1" vertex="1">
          <mxGeometry x="543" y="2293" width="20" height="157" as="geometry" />
        </mxCell>
        <mxCell id="OAe6Ylzoa2kv1lia_lBi-25" value="" style="shape=flexArrow;endArrow=classic;html=1;rounded=0;endWidth=12;endSize=4.67;fillColor=none;strokeColor=#432D57;strokeWidth=1.5;" parent="1" edge="1">
          <mxGeometry width="50" height="50" relative="1" as="geometry">
            <mxPoint x="393.5" y="2357" as="sourcePoint" />
            <mxPoint x="430" y="2357" as="targetPoint" />
          </mxGeometry>
        </mxCell>
        <mxCell id="OAe6Ylzoa2kv1lia_lBi-26" value="&lt;div style=&quot;background-color: rgb(255, 255, 255);&quot;&gt;&lt;pre style=&quot;&quot;&gt;&lt;font face=&quot;Helvetica&quot;&gt;转换&lt;/font&gt;&lt;/pre&gt;&lt;/div&gt;" style="rounded=0;whiteSpace=wrap;html=1;strokeWidth=1.5;fillColor=none;strokeColor=none;" parent="1" vertex="1">
          <mxGeometry x="380" y="2366.5" width="59" height="33" as="geometry" />
        </mxCell>
        <mxCell id="OAe6Ylzoa2kv1lia_lBi-27" value="&lt;div style=&quot;background-color: rgb(255, 255, 255);&quot;&gt;&lt;pre style=&quot;&quot;&gt;&lt;font face=&quot;Helvetica&quot;&gt;HttpHeader&lt;/font&gt;&lt;/pre&gt;&lt;/div&gt;" style="rounded=0;whiteSpace=wrap;html=1;strokeWidth=1.5;fillColor=none;strokeColor=none;" parent="1" vertex="1">
          <mxGeometry x="293" y="2460" width="59" height="33" as="geometry" />
        </mxCell>
        <mxCell id="OAe6Ylzoa2kv1lia_lBi-28" value="&lt;div style=&quot;background-color: rgb(255, 255, 255);&quot;&gt;&lt;pre style=&quot;&quot;&gt;&lt;font face=&quot;Helvetica&quot;&gt;RequestProtocol&lt;/font&gt;&lt;/pre&gt;&lt;/div&gt;" style="rounded=0;whiteSpace=wrap;html=1;strokeWidth=1.5;fillColor=none;strokeColor=none;" parent="1" vertex="1">
          <mxGeometry x="444.5" y="2463" width="86.5" height="26" as="geometry" />
        </mxCell>
        <mxCell id="OAe6Ylzoa2kv1lia_lBi-30" value="TrpcCallType" style="rounded=1;whiteSpace=wrap;html=1;strokeWidth=1.5;fillColor=#d0cee2;strokeColor=#56517e;sketch=1;curveFitting=1;jiggle=2;" parent="1" vertex="1">
          <mxGeometry x="280" y="2408" width="90" height="20" as="geometry" />
        </mxCell>
        <mxCell id="OAe6Ylzoa2kv1lia_lBi-31" value="TrpcRequestID" style="rounded=1;whiteSpace=wrap;html=1;strokeWidth=1.5;fillColor=#d0cee2;strokeColor=#56517e;sketch=1;curveFitting=1;jiggle=2;" parent="1" vertex="1">
          <mxGeometry x="280" y="2443" width="90" height="20" as="geometry" />
        </mxCell>
        <mxCell id="OAe6Ylzoa2kv1lia_lBi-32" value="trpc.CallType" style="rounded=1;whiteSpace=wrap;html=1;strokeWidth=1.5;fillColor=#f8cecc;strokeColor=#b85450;sketch=1;curveFitting=1;jiggle=2;" parent="1" vertex="1">
          <mxGeometry x="444" y="2406" width="90" height="20" as="geometry" />
        </mxCell>
        <mxCell id="OAe6Ylzoa2kv1lia_lBi-33" value="trpc.RequestID" style="rounded=1;whiteSpace=wrap;html=1;strokeWidth=1.5;fillColor=#f8cecc;strokeColor=#b85450;sketch=1;curveFitting=1;jiggle=2;" parent="1" vertex="1">
          <mxGeometry x="442" y="2440" width="90" height="20" as="geometry" />
        </mxCell>
        <mxCell id="S5-xvh5UzjtsKJgK2uCY-1" value="selector注册" style="rounded=1;whiteSpace=wrap;html=1;strokeWidth=1.5;fillColor=none;strokeColor=#9673a6;" vertex="1" parent="1">
          <mxGeometry y="2560" width="90" height="40" as="geometry" />
        </mxCell>
        <mxCell id="S5-xvh5UzjtsKJgK2uCY-2" value="&lt;b&gt;selectors&lt;/b&gt;[kafka]=&lt;br&gt;dsn.DefaultSelector" style="rounded=1;whiteSpace=wrap;html=1;strokeWidth=1.5;fillColor=none;strokeColor=#9673a6;" vertex="1" parent="1">
          <mxGeometry x="150" y="2560" width="90" height="40" as="geometry" />
        </mxCell>
        <mxCell id="S5-xvh5UzjtsKJgK2uCY-3" value="" style="endArrow=classic;html=1;rounded=0;strokeWidth=1.5;fillColor=#e1d5e7;strokeColor=#9673a6;" edge="1" parent="1">
          <mxGeometry width="50" height="50" relative="1" as="geometry">
            <mxPoint x="100" y="2579.5" as="sourcePoint" />
            <mxPoint x="140" y="2580" as="targetPoint" />
          </mxGeometry>
        </mxCell>
        <mxCell id="S5-xvh5UzjtsKJgK2uCY-4" value="消费端" style="rounded=1;whiteSpace=wrap;html=1;strokeWidth=1.5;fillColor=none;strokeColor=#9673a6;" vertex="1" parent="1">
          <mxGeometry y="2670" width="90" height="40" as="geometry" />
        </mxCell>
        <mxCell id="S5-xvh5UzjtsKJgK2uCY-5" value="单消息消费" style="rounded=1;whiteSpace=wrap;html=1;strokeWidth=1.5;fillColor=none;strokeColor=#9673a6;" vertex="1" parent="1">
          <mxGeometry x="150" y="2630" width="90" height="40" as="geometry" />
        </mxCell>
        <mxCell id="S5-xvh5UzjtsKJgK2uCY-6" value="批量消费" style="rounded=1;whiteSpace=wrap;html=1;strokeWidth=1.5;fillColor=none;strokeColor=#9673a6;" vertex="1" parent="1">
          <mxGeometry x="150" y="2710" width="90" height="40" as="geometry" />
        </mxCell>
        <mxCell id="S5-xvh5UzjtsKJgK2uCY-7" value="" style="shape=curlyBracket;whiteSpace=wrap;html=1;rounded=1;labelPosition=left;verticalLabelPosition=middle;align=right;verticalAlign=middle;strokeWidth=1.5;size=0.5;fillColor=#e1d5e7;strokeColor=#9673a6;" vertex="1" parent="1">
          <mxGeometry x="113" y="2650" width="20" height="90" as="geometry" />
        </mxCell>
        <mxCell id="S5-xvh5UzjtsKJgK2uCY-8" value="消费handle函数" style="rounded=1;whiteSpace=wrap;html=1;strokeWidth=1.5;fillColor=none;strokeColor=#9673a6;" vertex="1" parent="1">
          <mxGeometry x="310" y="2670" width="90" height="40" as="geometry" />
        </mxCell>
        <mxCell id="S5-xvh5UzjtsKJgK2uCY-9" value="" style="endArrow=classic;html=1;rounded=0;strokeWidth=1.5;fillColor=#e1d5e7;strokeColor=#9673a6;" edge="1" parent="1">
          <mxGeometry width="50" height="50" relative="1" as="geometry">
            <mxPoint x="256" y="2689.5" as="sourcePoint" />
            <mxPoint x="296" y="2690" as="targetPoint" />
          </mxGeometry>
        </mxCell>
        <mxCell id="S5-xvh5UzjtsKJgK2uCY-10" value="consumerDesc" style="rounded=1;whiteSpace=wrap;html=1;strokeWidth=1.5;fillColor=none;strokeColor=#9673a6;" vertex="1" parent="1">
          <mxGeometry x="310" y="2750" width="90" height="40" as="geometry" />
        </mxCell>
        <mxCell id="S5-xvh5UzjtsKJgK2uCY-11" value="" style="shape=curlyBracket;whiteSpace=wrap;html=1;rounded=1;labelPosition=left;verticalLabelPosition=middle;align=right;verticalAlign=middle;strokeWidth=1.5;size=0.5;fillColor=#e1d5e7;strokeColor=#9673a6;rotation=-180;" vertex="1" parent="1">
          <mxGeometry x="417" y="2685" width="20" height="90" as="geometry" />
        </mxCell>
        <mxCell id="S5-xvh5UzjtsKJgK2uCY-12" value="svc注册" style="rounded=1;whiteSpace=wrap;html=1;strokeWidth=1.5;fillColor=none;strokeColor=#9673a6;" vertex="1" parent="1">
          <mxGeometry x="448" y="2710" width="90" height="40" as="geometry" />
        </mxCell>
        <mxCell id="S5-xvh5UzjtsKJgK2uCY-13" value="handlers" style="rounded=1;whiteSpace=wrap;html=1;strokeWidth=1.5;fillColor=none;strokeColor=#9673a6;" vertex="1" parent="1">
          <mxGeometry x="610" y="2710" width="90" height="40" as="geometry" />
        </mxCell>
        <mxCell id="S5-xvh5UzjtsKJgK2uCY-14" value="" style="endArrow=classic;html=1;rounded=0;strokeWidth=1.5;fillColor=#e1d5e7;strokeColor=#9673a6;" edge="1" parent="1">
          <mxGeometry width="50" height="50" relative="1" as="geometry">
            <mxPoint x="553" y="2729.5" as="sourcePoint" />
            <mxPoint x="593" y="2730" as="targetPoint" />
          </mxGeometry>
        </mxCell>
        <mxCell id="S5-xvh5UzjtsKJgK2uCY-15" value="&lt;b&gt;interface&lt;br&gt;&lt;/b&gt;KafkaConsumer" style="rounded=1;whiteSpace=wrap;html=1;strokeWidth=1.5;fillColor=none;strokeColor=#9673a6;" vertex="1" parent="1">
          <mxGeometry x="760" y="2560" width="90" height="40" as="geometry" />
        </mxCell>
        <mxCell id="S5-xvh5UzjtsKJgK2uCY-16" value="KafkaHandler" style="rounded=1;whiteSpace=wrap;html=1;strokeWidth=1.5;fillColor=none;strokeColor=#9673a6;" vertex="1" parent="1">
          <mxGeometry x="760" y="2645" width="90" height="40" as="geometry" />
        </mxCell>
        <mxCell id="S5-xvh5UzjtsKJgK2uCY-18" value="" style="shape=flexArrow;endArrow=classic;html=1;rounded=0;endWidth=12;endSize=4.67;fillColor=none;strokeColor=#9673a6;strokeWidth=1.5;" edge="1" parent="1">
          <mxGeometry width="50" height="50" relative="1" as="geometry">
            <mxPoint x="804.5" y="2636" as="sourcePoint" />
            <mxPoint x="804.5" y="2606" as="targetPoint" />
          </mxGeometry>
        </mxCell>
        <mxCell id="S5-xvh5UzjtsKJgK2uCY-19" value="&lt;div style=&quot;background-color: rgb(255, 255, 255);&quot;&gt;&lt;pre style=&quot;&quot;&gt;&lt;font face=&quot;Helvetica&quot;&gt;实现&lt;/font&gt;&lt;/pre&gt;&lt;/div&gt;" style="rounded=0;whiteSpace=wrap;html=1;strokeWidth=1.5;fillColor=none;strokeColor=none;" vertex="1" parent="1">
          <mxGeometry x="807" y="2600" width="59" height="33" as="geometry" />
        </mxCell>
        <mxCell id="S5-xvh5UzjtsKJgK2uCY-20" value="method.Name" style="rounded=1;whiteSpace=wrap;html=1;strokeWidth=1.5;fillColor=none;strokeColor=#9673a6;" vertex="1" parent="1">
          <mxGeometry x="546" y="2820" width="90" height="40" as="geometry" />
        </mxCell>
        <mxCell id="S5-xvh5UzjtsKJgK2uCY-21" value="method.Func" style="rounded=1;whiteSpace=wrap;html=1;strokeWidth=1.5;fillColor=none;strokeColor=#9673a6;" vertex="1" parent="1">
          <mxGeometry x="662" y="2820" width="90" height="40" as="geometry" />
        </mxCell>
        <mxCell id="S5-xvh5UzjtsKJgK2uCY-22" value="" style="endArrow=classic;html=1;rounded=0;strokeWidth=1.5;fillColor=#e1d5e7;strokeColor=#9673a6;" edge="1" parent="1">
          <mxGeometry width="50" height="50" relative="1" as="geometry">
            <mxPoint x="630" y="2760" as="sourcePoint" />
            <mxPoint x="610" y="2810" as="targetPoint" />
          </mxGeometry>
        </mxCell>
        <mxCell id="S5-xvh5UzjtsKJgK2uCY-23" value="" style="endArrow=classic;html=1;rounded=0;strokeWidth=1.5;fillColor=#e1d5e7;strokeColor=#9673a6;" edge="1" parent="1">
          <mxGeometry width="50" height="50" relative="1" as="geometry">
            <mxPoint x="690" y="2760" as="sourcePoint" />
            <mxPoint x="700" y="2810" as="targetPoint" />
          </mxGeometry>
        </mxCell>
        <mxCell id="S5-xvh5UzjtsKJgK2uCY-25" value="&lt;div style=&quot;background-color: rgb(255, 255, 255);&quot;&gt;&lt;pre style=&quot;&quot;&gt;&lt;font face=&quot;Helvetica&quot;&gt;构造map&lt;/font&gt;&lt;/pre&gt;&lt;/div&gt;" style="rounded=0;whiteSpace=wrap;html=1;strokeWidth=1.5;fillColor=none;strokeColor=none;" vertex="1" parent="1">
          <mxGeometry x="630" y="2770" width="59" height="33" as="geometry" />
        </mxCell>
        <mxCell id="S5-xvh5UzjtsKJgK2uCY-27" value="" style="curved=1;endArrow=classic;html=1;rounded=0;strokeWidth=1.5;fontSize=12;fontColor=#1A1A1A;exitX=1;exitY=0;exitDx=0;exitDy=0;dashed=1;fillColor=#e1d5e7;strokeColor=#9673a6;entryX=0.5;entryY=1;entryDx=0;entryDy=0;" edge="1" parent="1" target="S5-xvh5UzjtsKJgK2uCY-16">
          <mxGeometry width="50" height="50" relative="1" as="geometry">
            <mxPoint x="752" y="2840" as="sourcePoint" />
            <mxPoint x="890" y="2460" as="targetPoint" />
            <Array as="points">
              <mxPoint x="810" y="2800" />
            </Array>
          </mxGeometry>
        </mxCell>
        <mxCell id="S5-xvh5UzjtsKJgK2uCY-28" value="KafkaConsumer.Handle" style="rounded=1;whiteSpace=wrap;html=1;strokeWidth=1.5;fillColor=none;strokeColor=#9673a6;" vertex="1" parent="1">
          <mxGeometry x="820" y="2820" width="90" height="40" as="geometry" />
        </mxCell>
        <mxCell id="S5-xvh5UzjtsKJgK2uCY-29" value="" style="endArrow=classic;html=1;rounded=0;strokeWidth=1.5;fillColor=#e1d5e7;strokeColor=#9673a6;" edge="1" parent="1">
          <mxGeometry width="50" height="50" relative="1" as="geometry">
            <mxPoint x="761" y="2839.5" as="sourcePoint" />
            <mxPoint x="801" y="2840" as="targetPoint" />
          </mxGeometry>
        </mxCell>
        <mxCell id="S5-xvh5UzjtsKJgK2uCY-30" value="&lt;div style=&quot;background-color: rgb(255, 255, 255);&quot;&gt;&lt;pre style=&quot;&quot;&gt;&lt;font face=&quot;Helvetica&quot;&gt;参数&lt;/font&gt;&lt;/pre&gt;&lt;/div&gt;" style="rounded=0;whiteSpace=wrap;html=1;strokeWidth=1.5;fillColor=none;strokeColor=none;" vertex="1" parent="1">
          <mxGeometry x="790" y="2742" width="59" height="33" as="geometry" />
        </mxCell>
      </root>
    </mxGraphModel>
  </diagram>
</mxfile>
